<svg width="62" height="58" viewBox="0 0 62 58" fill="none" xmlns="http://www.w3.org/2000/svg">
<g filter="url(#filter0_d)">
<rect x="8.5" y="6.5" width="45" height="41" rx="3.5" fill="#64A70B" stroke="#64A70B"/>
<path d="M40.8997 20.5724C40.8098 20.4391 40.6716 20.3525 40.5126 20.3191C40.4504 20.3058 40.2915 20.2858 39.8699 20.2858C39.7109 20.2858 39.5865 20.2858 39.5865 20.2858H24.9968L24.9623 20.1325L24.6375 18.5331C24.5822 18.2466 24.3334 18.0333 24.0362 18H24.0224C24.0016 18 23.9878 18 23.9671 18H20.0553C20.0276 18 20 18.0267 20 18.0533V19.2662C20 19.2995 20.0276 19.3262 20.0553 19.3262H23.3934L23.428 19.4861L25.84 31.395C25.8538 31.475 25.8884 31.555 25.9368 31.6283C25.9921 31.7149 26.075 31.7882 26.1648 31.8415L26.4344 31.9948L26.1856 32.1748C26.0888 32.2481 25.9921 32.328 25.9091 32.408C25.5152 32.8078 25.3009 33.3277 25.3009 33.8741C25.3009 35.047 26.2892 36 27.5056 36C28.722 36 29.7103 35.047 29.7103 33.8741C29.7103 33.5076 29.6136 33.1411 29.427 32.8278L29.2542 32.528H35.3223L35.1495 32.8278C34.9629 33.1477 34.8661 33.5076 34.8661 33.8741C34.8661 35.047 35.8544 36 37.0708 36C38.2872 36 39.2755 35.047 39.2755 33.8741C39.2755 33.3277 39.0613 32.8145 38.6742 32.4147L38.6189 32.3547V31.9282C38.6189 31.5283 38.2803 31.2084 37.8725 31.2084H27.2084L27.1739 31.0485L26.8214 29.3158L26.773 29.0759H38.7019C38.7295 29.0759 38.7572 29.0759 38.7779 29.0692C39.0405 29.0359 39.2479 28.8493 39.3032 28.6027L40.9826 21.0455C41.0241 20.8789 40.9895 20.7123 40.8997 20.5724ZM37.0639 32.7745C37.6928 32.7745 38.2043 33.2677 38.2043 33.8741C38.2043 34.4806 37.6928 34.9737 37.0639 34.9737C36.435 34.9737 35.9235 34.4806 35.9235 33.8741C35.9235 33.2677 36.435 32.7745 37.0639 32.7745ZM27.5125 32.7745C28.1415 32.7745 28.6529 33.2677 28.6529 33.8741C28.6529 34.4806 28.1415 34.9737 27.5125 34.9737C26.8836 34.9737 26.3722 34.4806 26.3722 33.8741C26.3722 33.2677 26.8836 32.7745 27.5125 32.7745ZM39.3999 21.8652L38.1282 27.5831L38.0937 27.7564L37.914 27.7431C37.9002 27.7431 37.8863 27.7431 37.8725 27.7431H26.5035L26.4689 27.5831L25.3148 21.8652L25.2664 21.6253H39.4483L39.3999 21.8652Z" fill="white"/>
</g>
<defs>
<filter id="filter0_d" x="0" y="0" width="62" height="58" filterUnits="userSpaceOnUse" color-interpolation-filters="sRGB">
<feFlood flood-opacity="0" result="BackgroundImageFix"/>
<feColorMatrix in="SourceAlpha" type="matrix" values="0 0 0 0 0 0 0 0 0 0 0 0 0 0 0 0 0 0 127 0" result="hardAlpha"/>
<feOffset dy="2"/>
<feGaussianBlur stdDeviation="4"/>
<feColorMatrix type="matrix" values="0 0 0 0 0.251881 0 0 0 0 0.416667 0 0 0 0 0.0329861 0 0 0 0.3 0"/>
<feBlend mode="normal" in2="BackgroundImageFix" result="effect1_dropShadow"/>
<feBlend mode="normal" in="SourceGraphic" in2="effect1_dropShadow" result="shape"/>
</filter>
</defs>
</svg>
