<svg height="242" viewBox="0 0 242 242" width="242" xmlns="http://www.w3.org/2000/svg"><g fill="none"><path d="m73.512 199.664-7.28 11.536c-.6053333.96-1.1973333 1.922667-1.776 2.888-.284.48-.572.964-.84 1.44-.136.24-.264.472-.4.704l-.172.332c-.04.088-.104.22-.108.236v.028c.0295816-.076847.0471216-.157801.052-.24 0-.044 0-.092 0-.128.0021338-.017268.0021338-.034732 0-.052.0058313-.033078.0058313-.066922 0-.1-.0059114-.024646-.0139412-.048736-.024-.072v.024c.0022801.019935.0022801.040065 0 .06l.124.26.172.3c.248.424.548.868.848 1.316s.624.9.952 1.348l.968 1.348-1.2-.5c2.544-.176 5.2-.5 7.768-.868l3.932-.6c1.356-.192 2.696-.316 4.032-.424 2.676-.204 5.34-.32 8-.4s5.316-.112 8-.108h-.096l44.928-3.128c3.716-.256 7.432-.668 11.16-1.092s7.444-.904 11.2-1.268c.94-.088 1.888-.168 2.864-.208h.74.704 1.408l5.632-.04 5.636-.076 2.8-.052h1.424.72.372c.14 0 .344 0 .512.032l-.46 2.744c-.064 0-.096 0-.188-.024l-.332-.028-.684-.044-1.396-.064c-.932-.036-1.868-.084-2.8-.104l-5.62-.128-5.588-.112h-1.408-.704-.664c-.896.036-1.824.112-2.748.196-3.704.348-7.436.82-11.164 1.244s-7.472.88-11.248 1.156l-44.888 3.56h-.096c-2.624.024-5.268.088-7.896.192s-5.26.248-7.86.48c-1.3.116-2.596.252-3.86.444l-3.916.64c-2.652.4-5.272.76-8 .98l-.692.056-.508-.548c-.432-.4-.82-.844-1.22-1.28s-.772-.888-1.148-1.356-.74-.952-1.1-1.496l-.264-.436c-.088-.156-.176-.336-.264-.504s-.092-.224-.136-.34l-.064-.172c-.0266864-.09338-.0480541-.188199-.064-.284-.02-.104-.032-.208-.044-.312v-.156c0-.072 0-.152 0-.232.0199264-.15298.0520283-.304127.096-.452l.06-.168c.092-.252.156-.38.232-.548l.216-.432c.14-.276.28-.544.424-.8.284-.524.576-1.024.864-1.528.58-1.004 1.172-2 1.768-2.972 1.2-1.968 2.4-3.896 3.636-5.828s2.484-3.836 3.744-5.752z" fill="#ff7600"/><path d="m71.64 201.632 110.216-8.816 18.084-83.956-159.696-4.056z" fill="#64a70b"/><path d="m63.292 105.392s-10.692-5.348-15.372-7.904-31.12-16.204-31.12-16.204l-5.324 9.808s22.84 16.92 26.464 21.6 10.4 17.056 10.4 17.056-6.944-19.704-4.552-22.712c1.568-1.964 19.504-1.644 19.504-1.644z" fill="#ff7600"/><g fill="#fff"><path d="m86.16 190.74c-1.732-4.4-3.236-8.876-4.672-13.364s-2.76-9.008-4-13.544-2.432-9.096-3.52-13.684-2.08-9.2-2.856-13.864c1.74 4.4 3.244 8.876 4.676 13.364s2.76 9.008 4 13.544 2.432 9.1 3.516 13.684 2.08 9.196 2.856 13.864z"/><path d="m96.576 151.6c5.404-.496 10.8-.756 16.212-.932 2.704-.112 5.408-.136 8.108-.2l8.108-.068c5.408 0 10.812.088 16.212.264 2.704.08 5.4.208 8.1.348 1.344.072 2.716.176 4.064.4 1.353547.171817 2.685016.486917 3.972.94-.661794-.111592-1.32964-.18372-2-.216-.672-.04-1.338667-.06-2-.06-1.344 0-2.676.032-4.036.128-2.704.14-5.404.268-8.108.348-5.402667.170667-10.804.258667-16.204.264l-8.1-.068c-2.7-.064-5.4-.088-8.1-.2-5.424-.176-10.804-.436-16.228-.948z"/><path d="m131.2 171.912c2.068651-.392493 4.159126-.659646 6.26-.8 2.084-.144 4.172-.212 6.256-.216s4.172.068 6.256.216c2.101256.136402 4.191972.403586 6.26.8-2.068032.396383-4.158747.663567-6.26.8-2.082667.149333-4.168.22-6.256.212-2.084 0-4.172-.068-6.256-.216-2.101172-.135081-4.191888-.400929-6.26-.796z"/><path d="m105.736 139.572c1.172 3.34 2.104 6.72 2.972 10.12s1.62 6.8 2.304 10.248 1.284 6.884 1.796 10.348.932 6.956 1.124 10.484c-1.172-3.336-2.108-6.716-2.976-10.116s-1.6-6.8-2.3-10.248-1.284-6.884-1.792-10.352-.932-6.952-1.128-10.484z"/><path d="m136.084 137.36c.888 3.26 1.556 6.54 2.168 9.832s1.124 6.588 1.6 9.892.868 6.616 1.228 9.936.636 6.636.996 10c-.65932-1.560518-1.211271-3.164251-1.652-4.8-.464-1.624-.844-3.26-1.2-4.9-.708-3.28-1.272-6.588-1.74-9.904s-.82-6.644-1.076-10c-.279717-3.344264-.387859-6.700666-.324-10.056z"/><path d="m72.472 123.424c2.3377664-.568598 4.7247106-.911503 7.128-1.024l7.2-.312c4.8-.184 9.6-.352 14.4-.468s9.6-.204 14.4-.288 9.6-.08 14.4-.1 9.6.044 14.4.132c2.4.048 4.8.124 7.2.2l3.6.16c1.2.064 2.4.144 3.58.192 4.776.212 9.56.368 14.348.436s9.58.108 14.38.076c-4.772.568-9.568.864-14.364 1.104-2.4.108-4.8.176-7.2.228s-4.8.048-7.2.028c-1.2 0-2.4-.032-3.6-.052l-3.58-.068c-2.4-.024-4.78-.04-7.176-.032-4.8-.021333-9.590667-.021333-14.372 0l-14.416-.036c-4.8-.044-9.6-.036-14.38-.112s-9.6-.136-14.4-.232c-2.4-.064-4.8-.108-7.2-.196-1.192-.04-2.3853333-.029333-3.58.032-1.1942772.048849-2.3852132.159664-3.568.332z"/></g><path d="m116 0v32.24h-13.328l-10.316 29.976h7.308l9.888-18.152 10.584 3.224 4.032 39.976 6.084-2.364 1.652-28.8s3.868 12.536 4.728 23.676l6.02-4.332s1.076-12.036 0-17.84c0 0 3.868 8.168 5.6 14.616l4.728-4.516-3.008-16.764s4.084 3.44 4.084 4.728v6.664l3.868-.216s1.62-14.184 1.24-14.828-10.708-15.048-10.708-15.048l-6.02-.428 2.58-31.812" fill="#ffb270"/><path d="m104.916 66.4s4.236-3.536 11.576-.848c7.128 2.608 7.036 9.9 5.8 14.376s-8.236 16.148-22.672 13.54-16.444-16.444-15.04-21.856 7.276-10.708 13.764-9.064 6.572 3.852 6.572 3.852z" fill="#d0df00"/><path d="m106.92 63.892s2.86-5.452 7.292-8.7c0 0-4.596-1.532-7.6 1.284s.308 7.416.308 7.416z" fill="#ff7600"/><path d="m48.744 223.94s.456-20.112-13.796-43.168-34.948-29.2-34.948-29.2 2.3 26.828 17.936 47.536 30.808 24.832 30.808 24.832z" fill="#d0df00"/><path d="m40.244 231.032s-3.908-9.2-12.768-11.16c-5.3726178-1.15816-10.9740549-.584013-16 1.64 2.8552309 6.395854 9.01156 10.689894 16 11.16 4.324221.368554 8.6772906-.190581 12.768-1.64z" fill="#d0df00"/><path d="m196.6 214.116s-.888-15.92 7.776-26.232c5.2-6.208 14.38-10.876 27.4-8.748 0 0 6.544 17.2-5.44 28.568-11.468 10.884-29.736 6.412-29.736 6.412z" fill="#d0df00"/><path d="m100.164 208.8c8.528 2.048 10.86 13.452 6.68 22.552-3.028 6.596-11.412 9.768-19.424 8.296-10.292-1.892-8.26-13.672-4.728-20.356s10.676-12.132 17.472-10.492z" fill="#ff7600"/><path d="m168.648 204.824c7.128 1.6 12.4 12.632 8.492 22.868s-13.068 12.4-17.856 11.104-10.456-9.672-9.364-16.8 8.928-19.348 18.728-17.172z" fill="#ff7600"/><path d="m2.292 241.78 14.96-.612c4.984-.212 9.968-.432 14.944-.724 1.244-.072 2.488-.14 3.728-.228l3.728-.292c2.5-.184 5-.296 7.5-.4 4.992-.192 10-.28 14.98-.372l7.484-.12c2.492-.024 4.976-.08 7.472-.144l14.964-.352 29.948-.572c5.008-.092 10-.064 14.996-.04s10 .088 14.972.148 9.976.104 14.956.12c2.492 0 4.968-.02 7.48-.02s5.004.044 7.504.096c4.992.096 9.976.288 14.952.332 2.492 0 4.972 0 7.456-.084s5.008-.092 7.508-.076c10 .072 19.964.4 29.94.7-10 .108-19.964 0-29.932.188-2.492.052-4.984.12-7.456.272s-5.008.28-7.508.32c-5.004.08-10 .064-14.98.056-2.492 0-4.984 0-7.468.052s-4.988.136-7.484.168c-5 .06-10 .06-14.98.068-9.98.044-19.968-.116-29.904.084l-29.94.488-14.972.18c-4.988.084-10 .048-14.976.036s-9.972 0-14.952.06c-2.488.032-4.98.08-7.456.192l-3.74.192c-1.2506667.050667-2.5013333.093333-3.752.128-4.996.112-10 .152-14.976.18l-7.488.024z" fill="#d0df00"/></g></svg>