<svg xmlns="http://www.w3.org/2000/svg" width="16" height="16" viewBox="0 0 16 16">
    <path fill="#046A38" fill-rule="nonzero" stroke="#046A38" d="M14.751 7.751h-1.639l-.012-.145C12.91 5.112 10.887 3.09 8.394 2.9l-.145-.012v-1.64a.249.249 0 0 0-.498 0v1.64l-.145.012C5.113 3.09 3.09 5.112 2.9 7.607l-.01.144h-1.64a.249.249 0 0 0 0 .498h1.64l.01.144c.19 2.495 2.214 4.518 4.707 4.707l.145.012v1.64a.249.249 0 0 0 .498 0v-1.64l.145-.012c2.493-.19 4.517-2.212 4.706-4.707l.012-.144h1.64a.249.249 0 0 0 0-.498zm-7 4.862l-.17-.015a4.593 4.593 0 0 1-2.846-1.334A4.603 4.603 0 0 1 3.402 8.42l-.016-.17h4.365v4.363zm0-4.862H3.386l.016-.17a4.577 4.577 0 0 1 1.333-2.846A4.617 4.617 0 0 1 7.58 3.401l.171-.015V7.75zm4.848.669a4.596 4.596 0 0 1-1.334 2.844 4.584 4.584 0 0 1-2.846 1.334l-.17.015V8.25h4.365l-.015.17zm-4.35-.669V3.386l.17.015a4.598 4.598 0 0 1 2.846 1.334 4.599 4.599 0 0 1 1.334 2.845l.015.171H8.25z"/>
</svg>
