<svg version="1.2" xmlns="http://www.w3.org/2000/svg" viewBox="0 0 167 78" width="167" height="78">
	<title>cmr-debito-svg</title>
	<style>
		.s0 { fill: #47a01a } 
		.s1 { fill: #ffffff } 
		.s2 { fill: #006726 } 
		.s3 { fill: #c3cc00 } 
		.s4 { fill: #e1001e } 
	</style>
	<g id="Layer">
		<g id="Layer">
			<path id="Layer" class="s0" d="m166.2 27.8v22.7 23.4c0 2-1.7 3.7-3.7 3.7h-77.8c-2 0-3.7-1.7-3.7-3.7v-23.3-22.7c0-2 1.7-3.7 3.7-3.7h77.8c2.1 0 3.7 1.6 3.7 3.6z"/>
			<g id="Layer">
				<path id="Layer" class="s1" d=""/>
				<path id="Layer" class="s1" d="m148.7 53.5c0 0.9-0.7 1.6-1.6 1.6q-0.6 0-0.9-0.3l-4.2-4.3c-0.1-0.1-0.4-0.4-0.9-1-0.6-0.6-0.9-1.4-0.9-2.1 0-1.1 0.7-2.2 2.2-2.6 1.5-0.3 2.6-1.1 2.6-2.5 0-1.4-1.3-2.5-2.8-2.5h-3.5v10.6 0.1 1.8c0 0.1 0 0.2-0.1 0.2 0 0 0 0-0.1 0l-2.6 0.4c-0.1 0-0.2 0-0.2 0 0 0-0.1-0.1-0.1-0.2v-2.2-11.7-1.9c0-0.1 0.1-0.2 0.1-0.2 0.1 0 0.1 0 0.2 0h6.3c3.1 0 6.1 2 6.1 5.6 0 3.1-1.7 4.7-4.3 5.2l-0.4 0.1 2.9 2.9 1.9 1.9c0.2 0.3 0.4 0.6 0.3 1.1z"/>
				<path id="Layer" class="s1" d="m114.9 49.4c0.1 0.3-0.1 0.7-0.2 0.9-0.2 0.2-0.3 0.4-0.3 0.4-1 1.1-3.3 2.9-6.7 2.9-2.8 0-5.3-1.3-7-3.3-1.4-1.6-2.2-3.6-2.2-5.9 0-5.2 3.8-9.2 8.9-9.2 4.8 0 6.9 3.2 7.4 4.1 0 0 0.2 0.3-0.1 0.3l-2.8 0.4c-0.1 0-0.2 0-0.2 0-1.3-1.2-2.8-1.4-3.9-1.4-3.3 0-6 2.6-6 5.9 0 3.3 2.7 6 6 6 1.5 0 2.9-0.6 4-1.6 0.1-0.1 0.3-0.3 0.4-0.4 0.2-0.3 0.7-0.5 1.1-0.5q0.4 0 0.9 0.3c0.4 0.3 0.7 0.8 0.7 1.1z"/>
				<path id="Layer" class="s1" d="m134.1 38.5v12 2.5c0 0.1 0 0.2-0.1 0.2 0 0 0 0-0.1 0l-2.7 0.4c-0.1 0-0.2 0-0.2 0-0.1 0-0.1-0.1-0.1-0.2v-2.9-9.3l-4.6 9.3-0.8 1.6-0.1 0.1c-0.1 0-0.1-0.1-0.1-0.1l-1-1.6-4.6-7.6v7.6 3c0 0.9-0.7 1.6-1.6 1.6-0.9 0-1.6-0.7-1.6-1.6v-3-8.9-1.9c0-0.1 0.1-0.2 0.1-0.2h0.1l4.2-0.6c0 0 0 0 0.1 0 0.1 0 0.1 0 0.2 0.1l0.9 1.6 3.1 5.2c0 0 0 0.1 0.1 0.1 0.1 0 0.1-0.1 0.1-0.1l3.6-7.6c0.5-1.2 1.3-2.1 2.6-2.1 1.3 0 2.4 1.1 2.5 2.4z"/>
			</g>
			<g id="Layer">
				<g id="Layer">
					<g id="Layer">
						<path id="Layer" class="s2" d="m103.1 64.5c0 1.6-1.3 3-3 3-1.6 0-6.5-1.3-6.5-3 0-1.1 2.2-2.1 4.1-2.6 0.3 0.3 0.7 0.6 0.9 0.7 1 0.6 2.4 0.3 3.1-0.7 0.8 0.5 1.4 1.5 1.4 2.6z"/>
						<path id="Layer" fill-rule="evenodd" class="s1" d="m100.1 67.6c-0.9 0-2.6-0.4-4-0.9-1.2-0.5-2.7-1.3-2.7-2.3 0-1.2 2.2-2.2 4.2-2.8h0.2c0.3 0.3 0.7 0.6 0.9 0.7 0.3 0.2 0.7 0.3 1.1 0.3 0.7 0 1.4-0.4 1.8-1l0.1-0.1 0.1 0.1c0.9 0.6 1.5 1.6 1.5 2.7-0.1 1.9-1.5 3.3-3.2 3.3zm-2.5-5.6c-1.8 0.5-4 1.5-4 2.5 0 0.7 0.9 1.4 2.6 2 1.5 0.6 3.1 0.9 3.9 0.9 1.6 0 2.9-1.3 2.9-2.9 0-1-0.5-1.9-1.3-2.4-0.5 0.6-1.2 1-1.9 1-0.4 0-0.9-0.1-1.3-0.4-0.2-0.2-0.6-0.4-0.9-0.7z"/>
						<path id="Layer" class="s3" d="m100 61.4c-0.5 0-1.4 0.1-2.4 0.4-1.2-1.1-2.6-3-2.1-3.8 0.7-1.1 4.4-0.1 5.5 0.6 1.1 0.7 1.5 2.1 0.8 3.2-0.1 0-0.1 0.1-0.1 0.1-0.5-0.3-1-0.5-1.7-0.5z"/>
					</g>
					<path id="Layer" fill-rule="evenodd" class="s1" d="m101.6 62c-0.5-0.3-1-0.4-1.5-0.4-0.6 0-1.4 0.2-2.4 0.4h-0.2c-1-0.9-2.8-3-2.2-4 0.2-0.4 0.7-0.5 1.5-0.5 1.4 0 3.4 0.7 4.2 1.1 0.6 0.3 1 0.9 1.1 1.5 0.2 0.6 0.1 1.3-0.3 1.9 0 0 0 0.1-0.1 0.1zm-1.5-0.7c0.6 0 1.1 0.1 1.6 0.4 0.3-0.5 0.4-1.1 0.3-1.7-0.1-0.6-0.5-1-1-1.3-0.7-0.4-2.7-1.1-4-1.1-0.7 0-1.1 0.1-1.2 0.4-0.4 0.7 0.7 2.4 2.1 3.6 0.7-0.2 1.6-0.3 2.2-0.3z"/>
				</g>
				<g id="Layer">
					<path id="Layer" fill-rule="evenodd" class="s1" d="m117.3 66.4c0 0.2-0.1 0.3-0.3 0.4-0.2 0.1-0.4 0.2-0.6 0.2-0.2 0.1-0.5 0.1-0.7 0.1-0.2 0-0.5 0.1-0.7 0.1-0.2 0-0.5 0-0.7 0-0.6 0-1.1-0.1-1.4-0.2-0.4-0.1-0.7-0.3-0.9-0.5-0.2-0.2-0.4-0.4-0.5-0.7-0.1-0.3-0.1-0.5-0.1-0.8 0-0.3 0.1-0.6 0.2-0.9 0.1-0.3 0.3-0.5 0.5-0.7 0.2-0.2 0.5-0.4 0.9-0.5 0.4-0.1 0.8-0.2 1.3-0.2h1.5v-0.2c0-0.2 0-0.3-0.1-0.5 0-0.1-0.1-0.3-0.2-0.4-0.1-0.1-0.2-0.2-0.4-0.2-0.2-0.1-0.4-0.1-0.7-0.1-0.3 0-0.6 0-1 0.1-0.4 0-0.6 0.1-0.9 0.2-0.1 0-0.2 0-0.2 0l-0.1-0.1-0.2-0.7c0-0.1 0-0.2 0.1-0.3q0.6-0.2 1.2-0.3c0.4-0.1 0.9-0.1 1.2-0.1 0.9 0 1.6 0.2 2 0.6 0.4 0.4 0.6 1 0.6 1.7v4zm-3.4-2.4c-0.2 0-0.3 0.1-0.5 0.1-0.1 0.1-0.3 0.2-0.4 0.3-0.1 0.1-0.2 0.4-0.2 0.6 0 0.4 0.1 0.6 0.4 0.8 0.3 0.1 0.6 0.2 1 0.2 0.1 0 0.1 0 0.3 0q0.1 0 0.3 0c0.1 0 0.3 0 0.4-0.1 0.1 0 0.3-0.1 0.4-0.1v-1.8c-0.1 0-1.5 0-1.7 0z"/>
					<path id="Layer" fill-rule="evenodd" class="s1" d="m127.2 66.4c0 0.2-0.1 0.3-0.3 0.4-0.2 0.1-0.4 0.2-0.6 0.2-0.2 0.1-0.5 0.1-0.7 0.1-0.2 0-0.5 0.1-0.7 0.1-0.2 0-0.5 0-0.7 0-0.6 0-1.1-0.1-1.5-0.2-0.4-0.1-0.7-0.3-0.9-0.5-0.2-0.2-0.4-0.4-0.5-0.7-0.1-0.3-0.1-0.5-0.1-0.8 0-0.3 0.1-0.6 0.2-0.9 0.1-0.3 0.3-0.5 0.5-0.7 0.2-0.2 0.5-0.4 0.9-0.5 0.4-0.1 0.8-0.2 1.3-0.2h1.5v-0.2c0-0.2 0-0.3-0.1-0.5 0-0.1-0.1-0.3-0.2-0.4-0.1-0.1-0.2-0.2-0.4-0.2-0.2-0.1-0.4-0.1-0.7-0.1-0.3 0-0.6 0-1 0.1-0.4 0-0.6 0.1-0.9 0.2-0.1 0-0.2 0-0.2 0l-0.1-0.1-0.2-0.7c0-0.1 0-0.2 0.1-0.3q0.6-0.2 1.2-0.3c0.4-0.1 0.9-0.1 1.3-0.1 0.9 0 1.6 0.2 2 0.6 0.4 0.4 0.6 1 0.6 1.7v4zm-3.4-2.4c-0.2 0-0.3 0.1-0.5 0.1-0.2 0.1-0.3 0.2-0.4 0.3-0.1 0.1-0.2 0.4-0.2 0.6 0 0.4 0.1 0.6 0.4 0.8 0.3 0.1 0.6 0.2 1 0.2 0.1 0 0.1 0 0.3 0 0.1 0 0.2 0 0.4 0 0.1 0 0.3 0 0.4-0.1 0.1 0 0.3-0.1 0.4-0.1v-1.8c-0.2 0-1.6 0-1.8 0z"/>
					<path id="Layer" fill-rule="evenodd" class="s1" d="m138 60.3c1 0 1.8 0.3 2.3 0.8 0.5 0.5 0.7 1.2 0.7 2.1 0 0.2 0 0.4-0.1 0.6-0.1 0.1-0.1 0.3-0.2 0.3-0.1 0.1-0.2 0.1-0.3 0.2-0.1 0-0.3 0.1-0.4 0.1h-3.5c0 0.3 0.1 0.6 0.2 0.8 0.1 0.2 0.2 0.4 0.4 0.5q0.3 0.1 0.6 0.3c0.2 0.1 0.5 0.1 0.7 0.1 0.3 0 0.6 0 0.8-0.1 0.3-0.1 0.5-0.2 0.7-0.2 0.1-0.1 0.2 0 0.3 0.1l0.4 0.7c0.1 0.1 0 0.2-0.1 0.3-0.3 0.2-0.7 0.3-1.1 0.4-0.4 0.1-0.8 0.1-1.1 0.1-1.1 0-1.9-0.3-2.4-0.8-0.6-0.6-0.9-1.4-0.9-2.6 0-0.6 0.1-1.1 0.2-1.5 0.2-0.4 0.4-0.8 0.7-1.1 0.3-0.3 0.6-0.5 1-0.7 0.2-0.3 0.6-0.4 1.1-0.4zm0 1.2c-0.2 0-0.4 0-0.6 0.1-0.2 0.1-0.3 0.2-0.5 0.4-0.1 0.2-0.2 0.3-0.3 0.5-0.1 0.2-0.1 0.4-0.1 0.6h3c0-0.2 0-0.4-0.1-0.6 0-0.2-0.1-0.4-0.2-0.5-0.1-0.1-0.3-0.3-0.4-0.4-0.2 0-0.5-0.1-0.8-0.1z"/>
					<path id="Layer" fill-rule="evenodd" class="s1" d="m153.9 66.4c0 0.2-0.1 0.3-0.3 0.4-0.2 0.1-0.4 0.2-0.6 0.2-0.2 0.1-0.5 0.1-0.7 0.1-0.2 0-0.5 0.1-0.7 0.1-0.2 0-0.5 0-0.7 0-0.6 0-1.1-0.1-1.5-0.2-0.4-0.1-0.7-0.3-0.9-0.5-0.2-0.2-0.4-0.4-0.5-0.7-0.1-0.3-0.1-0.5-0.1-0.8 0-0.3 0.1-0.6 0.2-0.9 0.1-0.3 0.3-0.5 0.5-0.7 0.2-0.2 0.5-0.4 0.9-0.5 0.4-0.1 0.8-0.2 1.3-0.2h1.5v-0.2c0-0.2 0-0.3-0.1-0.5 0-0.1-0.1-0.3-0.2-0.4-0.1-0.1-0.2-0.2-0.4-0.2-0.2-0.1-0.4-0.1-0.7-0.1-0.3 0-0.6 0-1 0.1-0.3 0-0.6 0.1-0.9 0.2-0.1 0-0.2 0-0.2 0l-0.1-0.1-0.2-0.7c0-0.1 0-0.2 0.1-0.3q0.6-0.2 1.2-0.3c0.4-0.1 0.9-0.1 1.2-0.1 0.9 0 1.6 0.2 2 0.6 0.4 0.4 0.6 1 0.6 1.7v4zm-3.3-2.4c-0.2 0-0.3 0.1-0.5 0.1-0.2 0.1-0.3 0.2-0.4 0.3-0.1 0.1-0.1 0.4-0.1 0.6 0 0.4 0.1 0.6 0.4 0.8 0.3 0.1 0.6 0.2 1 0.2 0.1 0 0.1 0 0.3 0q0.1 0 0.3 0c0.1 0 0.3 0 0.4-0.1 0.1 0 0.3-0.1 0.4-0.1v-1.8c-0.1 0-1.6 0-1.8 0z"/>
					<path id="Layer" class="s1" d="m111.7 58.6v0.8c0 0.1-0.1 0.2-0.1 0.2 0 0.1-0.1 0.1-0.2 0.1h-3.5c-0.3 0-0.6 0.1-0.7 0.2-0.1 0.1-0.2 0.3-0.2 0.6v1.5h4c0.1 0 0.2 0.1 0.2 0.1 0.1 0 0.1 0.1 0.1 0.2v0.7c0 0.1-0.1 0.1-0.1 0.2 0 0.1-0.1 0.1-0.2 0.1h-4v2.9c0 0.8-0.6 1-0.9 1h-0.4c-0.1 0-0.1-0.1-0.2-0.1-0.1 0-0.1-0.1-0.1-0.2v-6.4c0-0.3 0-0.6 0.1-0.9 0.1-0.2 0.2-0.5 0.4-0.7 0.2-0.2 0.4-0.4 0.7-0.5 0.3-0.1 0.7-0.2 1.1-0.2h3.7c0.1 0 0.2 0.1 0.2 0.1 0.1 0 0.1 0.1 0.1 0.3z"/>
					<path id="Layer" fill-rule="evenodd" class="s1" d="m134.3 63.9c0 0.5-0.1 1-0.2 1.4-0.1 0.4-0.3 0.8-0.6 1.1-0.2 0.4-0.6 0.6-1 0.8q-0.6 0.3-1.5 0.3c-0.5 0-0.9 0-1.4-0.1-0.5-0.1-0.9-0.2-1.3-0.4-0.1 0-0.2-0.1-0.2-0.1 0-0.1 0-7.9 0-8 0-0.8 0.6-1 0.9-1 0.1 0 0.6 0 0.6 0 0.1 0 0.1 0.1 0.1 0.2v2.5c0.2-0.1 0.5-0.2 0.8-0.2 0.3-0.1 0.6-0.1 0.8-0.1 0.6 0 1 0.1 1.4 0.3 0.3 0.2 0.7 0.4 0.9 0.7 0.2 0.3 0.4 0.7 0.5 1.1 0.1 0.4 0.2 0.8 0.2 1.5zm-1.7 0c0-0.8-0.1-1.3-0.4-1.7-0.4-0.4-0.8-0.6-1.3-0.6q-0.2 0-0.6 0c-0.2 0.1-0.5 0.1-0.8 0.2v4.1c0.3 0 0.5 0.1 0.7 0.1q0.3 0 0.6 0c0.3 0 0.6 0 0.8-0.1 0.2-0.1 0.4-0.2 0.6-0.4 0.2-0.2 0.3-0.4 0.4-0.7 0-0.2 0.1-0.6 0-0.9z"/>
					<path id="Layer" class="s1" d="m144.5 67.1c-0.1 0-0.1 0.1-0.2 0.1-0.2 0-0.4 0.1-0.6 0.1q-0.3 0-0.6 0c-0.5 0-0.9-0.1-1.1-0.3-0.3-0.3-0.4-0.6-0.4-1.2v-7.1c0.1-0.7 0.6-0.9 0.9-0.9h0.4c0.1 0 0.2 0 0.2 0 0.1 0 0.1 0.1 0.1 0.2v7.5c0 0.3 0 0.4 0.1 0.5 0.1 0.1 0.2 0.1 0.4 0.1 0 0 0.1 0 0.2 0 0.1 0 0.1 0 0.2 0h0.1c0.1 0 0.1 0 0.1 0.1l0.1 0.7c0 0 0 0.1 0.1 0.2z"/>
					<path id="Layer" class="s1" d="m147.9 67.1c-0.1 0-0.1 0.1-0.2 0.1-0.2 0-0.4 0.1-0.6 0.1q-0.3 0-0.6 0c-0.5 0-0.9-0.1-1.1-0.3-0.3-0.3-0.4-0.6-0.4-1.2v-7c0-0.8 0.6-1 0.9-1h0.4c0.1 0 0.2 0 0.2 0 0.1 0 0.1 0.1 0.1 0.2v7.5c0 0.3 0 0.4 0.1 0.5 0.1 0.1 0.2 0.1 0.4 0.1 0 0 0.1 0 0.2 0 0.1 0 0.1 0 0.2 0h0.1c0.1 0 0.1 0 0.1 0.1l0.1 0.7c0 0 0 0.1 0.1 0.2z"/>
					<path id="Layer" class="s1" d="m121 67.1c-0.1 0-0.1 0.1-0.2 0.1-0.2 0-0.4 0.1-0.6 0.1q-0.3 0-0.6 0c-0.5 0-0.9-0.1-1.1-0.3-0.2-0.3-0.3-0.6-0.3-1.2v-7c0-0.8 0.6-1 0.9-1h0.4c0.1 0 0.2 0 0.2 0 0.1 0 0.1 0.1 0.1 0.2v7.5c0 0.3 0 0.4 0.1 0.5 0.1 0.1 0.2 0.1 0.4 0.1 0 0 0.1 0 0.2 0 0.1 0 0.1 0 0.2 0 0.1 0 0.2 0 0.2 0 0.1 0 0.1 0 0.1 0.1l0.1 0.7c0 0 0 0.1-0.1 0.2z"/>
				</g>
			</g>
		</g>
		<path id="Layer" class="s4" d="m38.9 0.4c3.5 0 6.9 1.8 9.6 4.5l16.9 20.9c1.2-1.1 2.7-1.7 4.2-1.7 3.7 0 7.5 3.2 7.5 7.6v32.6c0 7.1-6.1 13.2-13.2 13.2h-32.6c-6.2 0-10.1-7.3-6-11.6l-21-16.8c-4.8-4.8-6.5-11.9-0.9-17.5l27.8-27.8c2.4-2.4 5-3.4 7.7-3.4z"/>
		<path id="Layer" class="s1" d="m44.2 52.9h-2.7c-0.4 0-0.6-0.1-0.6-0.5v-13.3c0-0.4 0.2-0.5 0.6-0.5h2.7c0.5 0 0.6 0.1 0.6 0.5v13.3c0 0.4-0.1 0.5-0.6 0.5z"/>
		<path id="Layer" class="s1" d="m55.5 49.1c0.4-0.2 0.6-0.2 0.7 0.2l0.7 2c0.2 0.3 0.2 0.5-0.2 0.7-1.6 0.8-3.4 1.1-4.9 1.1-4.1 0-6.3-2.4-6.3-7.2 0-4.5 2.5-7.3 6.6-7.3 1.5 0 3 0.3 4.2 0.9 0.5 0.2 0.5 0.3 0.3 0.7l-0.7 2c-0.2 0.4-0.3 0.4-0.8 0.2-0.9-0.3-1.8-0.5-2.6-0.5-2.1 0-2.9 1.8-2.9 3.9 0 2.2 0.6 3.7 3 3.7 1 0.2 2.1-0.1 2.9-0.4z"/>
		<path id="Layer" fill-rule="evenodd" class="s1" d="m68.5 52.2c-1.6 0.8-3.8 1-5.6 1-4.7 0-6.1-2-6.1-4.4 0-2.7 1.8-4.7 5.6-4.7h2.9v-0.4c0-1-0.3-1.9-2.3-1.9-1.1 0-2.7 0.2-3.7 0.5-0.4 0.1-0.6 0-0.7-0.3l-0.4-1.8c-0.1-0.4 0-0.5 0.3-0.6 1.6-0.6 3.4-0.8 5.1-0.8 3.8 0 5.6 1.7 5.6 4.8v7.6c-0.1 0.4-0.2 0.7-0.7 1zm-5.4-5.6c-1 0-2.4 0.2-2.4 1.9 0 1.2 0.9 1.7 2.3 1.7 0.4 0 1.5-0.1 2.2-0.3v-3.2h-2.1z"/>
		<path id="Layer" class="s1" d="m40 45.6v6.9c0 0.4-0.1 0.5-0.6 0.5h-2.7q-0.2 0-0.3 0c-0.2-0.1-0.3-0.2-0.3-0.5v-7.1c0 0 0.2-3.3-2.5-3.3-2 0-2.5 1.7-2.5 2.9v7.2c0 0.4-0.3 0.7-0.7 0.7h-0.6-0.6-1.2c-0.6 0-0.7-0.6-0.7-0.6v-1.2c0 0-0.9 1.7-3.2 1.7-1.1 0-2-0.1-2.7-0.4-2.2-0.9-2.8-3-2.8-6.4v-6.7c0-0.4 0.2-0.7 0.7-0.7h2.5c0.5 0 0.7 0.4 0.7 0.6v7c0 0-0.2 3.3 2.5 3.3 2 0 2.5-1.7 2.5-2.9v-7.3c0-0.4 0.3-0.7 0.7-0.7h0.6 0.6 1.2c0.6 0 0.7 0.6 0.7 0.6v1.3c0 0 0.9-1.7 3.2-1.7 1.1 0 2 0.1 2.7 0.4 2.2 0.8 2.9 2.9 2.8 6.4z"/>
		<path id="Layer" fill-rule="evenodd" class="s1" d="m42.9 36.2c-1 0-1.5-0.6-1.5-1.7 0-1.1 0.6-1.7 1.5-1.7 1 0 1.5 0.7 1.5 1.7 0 1-0.5 1.7-1.5 1.7zm0-2.8c-0.5 0-0.7 0.5-0.7 1 0 0.7 0.2 1.1 0.7 1.1 0.5 0 0.7-0.5 0.7-1.1 0-0.5-0.1-1-0.7-1z"/>
		<path id="Layer" fill-rule="evenodd" class="s1" d="m45.5 37.1h-0.5c-0.1 0-0.1 0-0.1-0.1v-3.1c0-0.1 0-0.1 0.1-0.1 0.3-0.1 0.7-0.2 1.1-0.2 0.9 0 1.2 0.6 1.2 1.3 0 0.7-0.4 1.3-1.1 1.3-0.2 0-0.3 0-0.5-0.1zm0.4-2.9c-0.1 0-0.3 0-0.4 0.1v1.3c0.2 0 0.3 0 0.4 0 0.3 0 0.5-0.2 0.5-0.7 0.1-0.6-0.1-0.7-0.5-0.7z"/>
		<path id="Layer" fill-rule="evenodd" class="s1" d="m48.7 36.2c-0.8 0-1.2-0.5-1.2-1.3 0-0.8 0.5-1.3 1.2-1.3 0.8 0 1.2 0.5 1.2 1.3 0.1 0.8-0.3 1.3-1.2 1.3zm0.1-2.1c-0.3 0-0.5 0.3-0.5 0.7 0 0.5 0.1 0.7 0.5 0.7 0.4 0 0.5-0.3 0.5-0.7-0.1-0.4-0.2-0.7-0.5-0.7z"/>
		<path id="Layer" class="s1" d="m51 36.1h-0.5c-0.1 0-0.1 0-0.1-0.1v-2c0-0.2 0.1-0.4 0.3-0.4 0.1 0 0.2 0 0.4 0q0.6 0 1.2 0.3c0.1 0 0 0.1 0 0.1l-0.3 0.4c0 0.1-0.1 0-0.1 0-0.2-0.1-0.4-0.2-0.6-0.2-0.1 0-0.1 0-0.2 0v1.8c0 0.1 0 0.1-0.1 0.1z"/>
		<path id="Layer" class="s1" d="m54.1 36.1c-0.2 0.1-0.5 0.1-0.7 0.1-0.5 0-0.8-0.2-0.8-0.7v-1.4h-0.3c-0.1 0-0.1 0-0.1-0.1v-0.3c0-0.1 0-0.1 0.1-0.1l0.4-0.1v-0.4c0-0.1 0-0.1 0.1-0.1l0.4-0.1c0.1 0 0.1 0 0.1 0.1v0.6h0.5c0.1 0 0.1 0 0.1 0.1v0.3c0 0.1 0 0.1-0.1 0.1h-0.5v1.2c0 0.2 0.1 0.2 0.3 0.2 0.1 0 0.3 0 0.4 0 0.1 0 0.1 0 0.1 0v0.6c0-0.1 0.1 0 0 0z"/>
		<path id="Layer" class="s1" d="m56 35.6v-1.9c0-0.1 0-0.1 0.1-0.1h0.5c0.1 0 0.1 0 0.1 0.1v2c0 0.2-0.1 0.3-0.3 0.4-0.1 0-0.5 0-0.7 0-0.9 0-1.3-0.3-1.3-1.2v-1.2c0-0.1 0-0.1 0.1-0.1h0.5c0.1 0 0.1 0 0.1 0.1v1.3c0 0.4 0.1 0.6 0.5 0.6 0.1 0 0.2 0 0.4 0z"/>
		<path id="Layer" class="s1" d="m57.9 34.1v1.9c0 0.1 0 0.1-0.1 0.1h-0.5c-0.1 0-0.1 0-0.1-0.1v-2c0-0.2 0.1-0.3 0.3-0.4 0.1 0 0.5 0 0.7 0 0.9 0 1.3 0.3 1.3 1.2v1.2c0 0.1 0 0.1-0.1 0.1h-0.5c-0.1 0-0.1 0-0.1-0.1v-1.3c0-0.4-0.1-0.6-0.6-0.6q-0.2 0-0.3 0z"/>
		<path id="Layer" class="s1" d="m60.4 33.4c-0.2 0-0.4-0.2-0.4-0.4 0-0.2 0.2-0.4 0.4-0.4 0.2 0 0.4 0.2 0.4 0.4 0 0.2-0.2 0.4-0.4 0.4zm0.2 2.7h-0.5c-0.1 0-0.1 0-0.1-0.1v-2.3c0-0.1 0-0.1 0.1-0.1h0.5c0.1 0 0.1 0 0.1 0.1v2.3c0 0.1 0 0.1-0.1 0.1z"/>
		<path id="Layer" fill-rule="evenodd" class="s1" d="m62.4 33.6c0.2 0 0.3 0 0.5 0.1v-0.9c0-0.1 0-0.1 0.1-0.1h0.5c0.1 0 0.1 0 0.1 0.1 0 0.1 0 3 0 3.1 0 0.2-0.9 0.3-1.1 0.3-0.9 0-1.2-0.5-1.2-1.3 0-0.7 0.3-1.3 1.1-1.3zm0.1 2c0.1 0 0.3 0 0.4-0.1v-1.3c-0.2 0-0.3 0-0.4 0-0.3 0-0.5 0.2-0.5 0.7 0 0.5 0.2 0.7 0.5 0.7z"/>
		<path id="Layer" fill-rule="evenodd" class="s1" d="m66.1 36c-0.3 0.1-0.7 0.2-1 0.2-0.9 0-1.1-0.4-1.1-0.8 0-0.5 0.3-0.9 1-0.9h0.5v-0.1c0-0.2-0.1-0.3-0.4-0.3-0.2 0-0.5 0-0.7 0.1-0.1 0-0.1 0-0.1-0.1l-0.1-0.3c0-0.1 0-0.1 0-0.1 0.3-0.1 0.6-0.1 0.9-0.1 0.7 0 1 0.3 1 0.9v1.4c0.1 0 0.1 0 0 0.1zm-0.9-1c-0.2 0-0.4 0-0.4 0.3 0 0.2 0.2 0.3 0.4 0.3 0.1 0 0.3 0 0.4-0.1v-0.5z"/>
		<path id="Layer" fill-rule="evenodd" class="s1" d="m67.8 33.6c0.2 0 0.3 0 0.5 0.1v-0.9c0-0.1 0-0.1 0.1-0.1h0.5c0.1 0 0.1 0 0.1 0.1 0 0.1 0 3 0 3.1 0 0.2-0.9 0.3-1.1 0.3-0.9 0-1.2-0.5-1.2-1.3 0-0.7 0.3-1.3 1.1-1.3zm0.2 2c0.1 0 0.3 0 0.4-0.1v-1.3c-0.2 0-0.3 0-0.4 0-0.3 0-0.5 0.2-0.5 0.7-0.1 0.5 0.1 0.7 0.5 0.7z"/>
		<path id="Layer" class="s1" d="m23.9 35.6l0.8-1.9c0-0.2 0.1-0.1 0.3-0.1l1.4 0.3c0.1 0 0.2 0.1 0.1 0.2l-1.3 1.9c-0.1 0.1-0.2 0.1-0.3 0.1l-1-0.2q-0.3 0 0-0.3z"/>
	</g>
</svg>