<?xml version="1.0" encoding="utf-8"?>
<!-- Generator: Adobe Illustrator 24.1.2, SVG Export Plug-In . SVG Version: 6.00 Build 0)  -->
<svg version="1.1" id="Capa_1" xmlns="http://www.w3.org/2000/svg" xmlns:xlink="http://www.w3.org/1999/xlink" x="0px" y="0px"
	 viewBox="0 0 262 131" style="enable-background:new 0 0 262 131;" xml:space="preserve">
<style type="text/css">
	.st0{fill:#009922;}
	.st1{fill:#FFFFFF;}
	.st2{fill:#FA1925;}
	.st3{fill:none;stroke:#FFFFFF;stroke-width:4.0569;stroke-miterlimit:10;}
</style>
<g>
	<path class="st0" d="M247.6,43.1H131.8c-3,0-5.5,2.5-5.5,5.5v33.8v34.7c0,3,2.5,5.5,5.5,5.5h115.8c3,0,5.5-2.5,5.5-5.5V82.4V48.6
		C253.2,45.6,250.7,43.1,247.6,43.1"/>
	<path class="st1" d="M173.6,105.3c0,0.3-0.1,0.5-0.4,0.6c-0.3,0.1-0.6,0.2-0.9,0.3c-0.3,0.1-0.6,0.2-1,0.2c-0.3,0.1-0.7,0.1-1,0.1
		c-0.3,0-0.6,0-0.9,0c-0.8,0-1.5-0.1-2-0.2c-0.5-0.2-1-0.4-1.3-0.7c-0.3-0.3-0.5-0.6-0.7-1c-0.1-0.4-0.2-0.8-0.2-1.2
		c0-0.4,0.1-0.8,0.2-1.2c0.1-0.4,0.4-0.8,0.7-1.1c0.3-0.3,0.7-0.5,1.2-0.7c0.5-0.2,1.1-0.3,1.9-0.3h2.1v-0.3c0-0.2,0-0.5-0.1-0.7
		c0-0.2-0.1-0.4-0.3-0.5c-0.1-0.1-0.3-0.3-0.6-0.3c-0.3-0.1-0.6-0.1-1-0.1c-0.4,0-0.9,0-1.4,0.1c-0.5,0.1-0.9,0.2-1.2,0.3
		c-0.1,0-0.2,0-0.3,0c-0.1,0-0.1-0.1-0.1-0.2l-0.2-1.1c-0.1-0.2,0-0.3,0.2-0.4c0.5-0.2,1.1-0.3,1.7-0.4c0.6-0.1,1.2-0.1,1.7-0.1
		c1.3,0,2.2,0.3,2.8,0.8c0.6,0.6,0.9,1.4,0.9,2.5V105.3z M171.4,101.8h-1.8c-0.2,0-0.4,0-0.7,0c-0.2,0-0.5,0.1-0.7,0.2
		c-0.2,0.1-0.4,0.3-0.5,0.5c-0.1,0.2-0.2,0.5-0.2,0.9c0,0.5,0.2,0.9,0.5,1.1c0.4,0.2,0.8,0.3,1.4,0.3c0.1,0,0.2,0,0.4,0
		c0.2,0,0.3,0,0.5,0c0.2,0,0.4-0.1,0.5-0.1c0.2,0,0.4-0.1,0.5-0.1V101.8z"/>
	<path class="st1" d="M187.4,105.3c0,0.3-0.1,0.5-0.3,0.6c-0.3,0.1-0.6,0.2-0.9,0.3c-0.3,0.1-0.6,0.2-1,0.2c-0.3,0.1-0.7,0.1-1,0.1
		c-0.3,0-0.6,0-0.9,0c-0.8,0-1.5-0.1-2-0.2c-0.5-0.2-1-0.4-1.3-0.7c-0.3-0.3-0.5-0.6-0.7-1c-0.1-0.4-0.2-0.8-0.2-1.2
		c0-0.4,0.1-0.8,0.2-1.2c0.1-0.4,0.4-0.8,0.7-1.1c0.3-0.3,0.7-0.5,1.2-0.7c0.5-0.2,1.1-0.3,1.9-0.3h2.1v-0.3c0-0.2,0-0.5-0.1-0.7
		c0-0.2-0.1-0.4-0.3-0.5c-0.2-0.1-0.3-0.3-0.6-0.3c-0.2-0.1-0.6-0.1-1-0.1c-0.4,0-0.9,0-1.4,0.1c-0.5,0.1-0.9,0.2-1.2,0.3
		c-0.1,0-0.2,0-0.3,0c-0.1,0-0.1-0.1-0.1-0.2l-0.3-1.1c-0.1-0.2,0-0.3,0.2-0.4c0.5-0.2,1.1-0.3,1.7-0.4c0.6-0.1,1.2-0.1,1.7-0.1
		c1.3,0,2.2,0.3,2.8,0.8c0.6,0.6,0.9,1.4,0.9,2.5V105.3z M185.2,101.8h-1.8c-0.2,0-0.4,0-0.7,0c-0.2,0-0.5,0.1-0.7,0.2
		c-0.2,0.1-0.4,0.3-0.5,0.5c-0.1,0.2-0.2,0.5-0.2,0.9c0,0.5,0.2,0.9,0.5,1.1c0.3,0.2,0.8,0.3,1.4,0.3c0.1,0,0.2,0,0.4,0
		c0.2,0,0.3,0,0.5,0c0.2,0,0.3-0.1,0.5-0.1c0.2,0,0.4-0.1,0.5-0.1V101.8z"/>
	<path class="st1" d="M202.5,96.4c1.4,0,2.5,0.4,3.2,1.1c0.7,0.7,1,1.7,1,3c0,0.3,0,0.6-0.1,0.8c-0.1,0.2-0.2,0.4-0.3,0.5
		c-0.1,0.1-0.3,0.2-0.5,0.3c-0.2,0-0.4,0.1-0.6,0.1h-4.9c0,0.5,0.1,0.9,0.2,1.2c0.1,0.3,0.3,0.6,0.5,0.8c0.3,0.2,0.5,0.3,0.8,0.4
		c0.3,0.1,0.7,0.1,1,0.1c0.4,0,0.8,0,1.2-0.1c0.4-0.1,0.7-0.2,1-0.4c0.2-0.1,0.3,0,0.4,0.1l0.5,1c0.1,0.2,0,0.3-0.1,0.4
		c-0.5,0.3-1,0.5-1.5,0.6c-0.6,0.1-1.1,0.2-1.6,0.2c-1.5,0-2.6-0.4-3.4-1.2c-0.8-0.8-1.2-2.1-1.2-3.8c0-0.8,0.1-1.5,0.3-2.2
		c0.2-0.6,0.5-1.2,0.9-1.6c0.4-0.4,0.8-0.8,1.4-1C201.3,96.5,201.9,96.4,202.5,96.4 M202.5,98.2c-0.3,0-0.6,0.1-0.9,0.2
		c-0.3,0.1-0.5,0.3-0.7,0.5c-0.2,0.2-0.3,0.5-0.5,0.8c-0.1,0.3-0.2,0.6-0.2,0.9h4.3c0-0.3,0-0.6-0.1-0.9c-0.1-0.3-0.2-0.5-0.3-0.7
		c-0.2-0.2-0.4-0.4-0.6-0.5C203.3,98.2,203,98.2,202.5,98.2"/>
	<path class="st1" d="M224.8,105.3c0,0.3-0.1,0.5-0.4,0.6c-0.3,0.1-0.6,0.2-0.9,0.3c-0.3,0.1-0.6,0.2-1,0.2c-0.3,0.1-0.7,0.1-1,0.1
		c-0.3,0-0.6,0-0.9,0c-0.8,0-1.5-0.1-2-0.2c-0.5-0.2-1-0.4-1.3-0.7c-0.3-0.3-0.5-0.6-0.7-1c-0.1-0.4-0.2-0.8-0.2-1.2
		c0-0.4,0.1-0.8,0.2-1.2c0.1-0.4,0.4-0.8,0.7-1.1c0.3-0.3,0.7-0.5,1.2-0.7c0.5-0.2,1.1-0.3,1.9-0.3h2.1v-0.3c0-0.2,0-0.5-0.1-0.7
		c0-0.2-0.1-0.4-0.3-0.5c-0.1-0.1-0.3-0.3-0.6-0.3c-0.3-0.1-0.6-0.1-1-0.1c-0.4,0-0.9,0-1.4,0.1c-0.5,0.1-0.9,0.2-1.2,0.3
		c-0.1,0-0.2,0-0.3,0c-0.1,0-0.1-0.1-0.1-0.2l-0.3-1.1c0-0.2,0-0.3,0.2-0.4c0.5-0.2,1.1-0.3,1.7-0.4c0.6-0.1,1.2-0.1,1.7-0.1
		c1.3,0,2.2,0.3,2.8,0.8c0.6,0.6,0.9,1.4,0.9,2.5V105.3z M222.6,101.8h-1.8c-0.2,0-0.4,0-0.7,0c-0.2,0-0.5,0.1-0.7,0.2
		c-0.2,0.1-0.4,0.3-0.5,0.5c-0.1,0.2-0.2,0.5-0.2,0.9c0,0.5,0.2,0.9,0.5,1.1c0.4,0.2,0.8,0.3,1.4,0.3c0.1,0,0.2,0,0.4,0
		c0.2,0,0.3,0,0.5,0c0.2,0,0.4-0.1,0.5-0.1c0.2,0,0.4-0.1,0.5-0.1V101.8z"/>
	<path class="st1" d="M165.7,93.4c0-0.1-0.2-0.1-0.3-0.1h-5.2c-0.6,0-1.1,0.1-1.6,0.3c-0.4,0.2-0.8,0.4-1,0.7
		c-0.3,0.3-0.4,0.7-0.5,1.1c-0.1,0.4-0.2,0.8-0.2,1.3v9.2c0,0.2,0,0.3,0.1,0.3c0.1,0,0.2,0.1,0.3,0.1h0.6c0.4,0,1.2-0.2,1.2-1.4
		v-4.3h5.5c0.2,0,0.3,0,0.3-0.1c0-0.1,0.1-0.2,0.1-0.3v-1.1c0-0.2,0-0.3-0.1-0.3c0-0.1-0.1-0.1-0.3-0.1h-5.5v-2.2
		c0-0.4,0.1-0.7,0.3-0.9c0.2-0.2,0.5-0.3,1-0.3h5c0.2,0,0.3,0,0.3-0.1c0,0,0.1-0.2,0.1-0.3v-1.1C165.8,93.6,165.7,93.5,165.7,93.4"
		/>
	<path class="st1" d="M197.1,99.4c-0.2-0.6-0.4-1.1-0.8-1.6c-0.3-0.4-0.8-0.8-1.3-1c-0.5-0.3-1.2-0.4-1.9-0.4c-0.3,0-0.7,0-1.1,0.1
		c-0.4,0-0.8,0.1-1.2,0.3v-3.6c0-0.1,0-0.2-0.1-0.3c0,0-0.1-0.1-0.3-0.1h-0.6c-0.4,0-1.2,0.2-1.2,1.4v11.2c0,0.1,0,0.2,0.1,0.3
		c0,0.1,0.1,0.1,0.2,0.2c0.5,0.3,1.2,0.4,1.8,0.5c0.7,0.1,1.3,0.2,1.9,0.2c0.8,0,1.5-0.1,2.1-0.4c0.6-0.3,1.1-0.6,1.5-1.1
		c0.4-0.5,0.7-1,0.8-1.6c0.2-0.6,0.3-1.3,0.3-2C197.3,100.6,197.2,100,197.1,99.4 M194.9,102.9c-0.1,0.4-0.3,0.7-0.5,1
		c-0.2,0.3-0.5,0.4-0.8,0.6c-0.3,0.1-0.7,0.2-1.1,0.2c-0.2,0-0.5,0-0.8,0c-0.3,0-0.6-0.1-0.9-0.2v-5.9c0.4-0.1,0.8-0.2,1.1-0.2
		c0.4,0,0.6-0.1,0.8-0.1c0.7,0,1.3,0.3,1.7,0.8c0.4,0.5,0.6,1.3,0.6,2.4C195.1,102,195,102.5,194.9,102.9"/>
	<path class="st1" d="M211.4,105.9l-0.1-1c0-0.1,0-0.2-0.1-0.2c0,0-0.1,0-0.2,0c-0.1,0-0.2,0-0.3,0c-0.1,0-0.3,0-0.3,0
		c-0.2,0-0.4-0.1-0.5-0.2c-0.1-0.1-0.1-0.3-0.1-0.6V93.1c0-0.1,0-0.2-0.1-0.3c-0.1,0-0.2-0.1-0.3-0.1h-0.6c-0.4,0-1.2,0.2-1.2,1.3
		v10.2c0,0.8,0.2,1.4,0.5,1.7c0.3,0.3,0.8,0.5,1.5,0.5c0.2,0,0.5,0,0.8,0c0.3,0,0.6-0.1,0.8-0.2c0.1-0.1,0.2-0.1,0.2-0.2
		C211.5,106.1,211.5,106,211.4,105.9"/>
	<path class="st1" d="M216.2,105.9l-0.1-1c0-0.1,0-0.2-0.1-0.2c0,0-0.1,0-0.2,0c-0.1,0-0.2,0-0.3,0c-0.1,0-0.3,0-0.3,0
		c-0.2,0-0.4-0.1-0.5-0.2c-0.1-0.1-0.1-0.3-0.1-0.6V93.1c0-0.1,0-0.2-0.1-0.3c0,0-0.2-0.1-0.3-0.1h-0.6c-0.4,0-1.2,0.3-1.2,1.4v10.1
		c0,0.8,0.2,1.4,0.5,1.7c0.3,0.3,0.8,0.5,1.5,0.5c0.3,0,0.5,0,0.8,0c0.3,0,0.6-0.1,0.8-0.2c0.1-0.1,0.2-0.1,0.2-0.2
		C216.2,106.1,216.2,106,216.2,105.9"/>
	<path class="st1" d="M178.9,105.9l-0.1-1c0-0.1,0-0.2-0.1-0.2c0,0-0.1,0-0.2,0c-0.1,0-0.2,0-0.3,0c-0.1,0-0.2,0-0.3,0
		c-0.2,0-0.4-0.1-0.5-0.2c-0.1-0.1-0.1-0.3-0.1-0.6V93.1c0-0.1,0-0.2-0.1-0.3c-0.1,0-0.1-0.1-0.3-0.1h-0.6c-0.4,0-1.2,0.3-1.2,1.4
		v10.1c0,0.8,0.2,1.4,0.5,1.7c0.3,0.3,0.8,0.5,1.5,0.5c0.2,0,0.5,0,0.8,0c0.3,0,0.6-0.1,0.8-0.2c0.1-0.1,0.2-0.1,0.2-0.2
		C178.9,106.1,178.9,106,178.9,105.9"/>
	<path class="st1" d="M176.3,82.4L176.3,82.4C176.3,82.4,176.3,82.4,176.3,82.4"/>
	<path class="st1" d="M226.4,85.2l-2.8-2.8l-4.3-4.3l0.6-0.1c3.8-0.8,6.4-3.2,6.4-7.8c0-5.4-4.5-8.4-9-8.4h-9.4
		c-0.1,0-0.2,0-0.3,0.1c-0.1,0-0.1,0.1-0.1,0.3V65v17.4v3.3c0,0.2,0.1,0.3,0.2,0.3c0.1,0,0.2,0,0.3,0l0.1,0v0l3.9-0.6
		c0.1,0,0.1,0,0.2-0.1c0.1,0,0.1-0.1,0.1-0.3v-2.6v-0.2V66.4h5.2c2.3,0,4.2,1.6,4.2,3.7c0,2.1-1.6,3.2-3.8,3.7
		c-2.3,0.6-3.3,2.2-3.3,3.9c0,1.1,0.4,2.2,1.3,3.2c0.8,0.9,1.2,1.4,1.3,1.4c0,0,0,0,0,0l6.3,6.4c0.4,0.2,0.8,0.4,1.3,0.4
		c1.3,0,2.4-1.1,2.4-2.4C227.1,86.1,226.7,85.6,226.4,85.2"/>
	<path class="st1" d="M175.5,79.1c-0.4-0.3-0.9-0.4-1.3-0.4c-0.7,0-1.3,0.3-1.7,0.7c-0.1,0.2-0.4,0.4-0.6,0.6
		c-1.6,1.5-3.8,2.4-6,2.4c-4.9,0-8.9-4-8.9-8.9c0-4.9,4-8.9,8.9-8.9c1.6,0,3.9,0.3,5.8,2.2c0,0,0,0,0.1,0c0.1,0,0.2,0.1,0.3,0
		l4.2-0.6c0.4-0.1,0.2-0.4,0.2-0.4c-0.7-1.4-3.8-6.1-11-6c-7.6,0.1-13.2,6-13.3,13.7c0,3.4,1.2,6.5,3.3,8.9c2.5,3,6.3,4.9,10.5,4.9
		c5.1,0,8.4-2.7,10-4.3c0,0,0.2-0.2,0.4-0.6c0.2-0.3,0.4-0.8,0.4-1.3C176.6,80.3,176.2,79.6,175.5,79.1"/>
	<path class="st1" d="M201.4,60.9c-2,0-3.1,1.4-3.9,3.2l-5.4,11.4c0,0,0,0.1-0.1,0.1c-0.1,0-0.1-0.1-0.1-0.1l-4.6-7.8v0l-1.4-2.4
		c-0.1-0.1-0.2-0.2-0.3-0.2c-0.1,0-0.1,0-0.1,0l-6.2,0.9c-0.1,0-0.1,0-0.2,0.1c-0.1,0-0.1,0.2-0.1,0.3v2.8v13.3v4.4
		c0,1.3,1.1,2.3,2.4,2.3c1.3,0,2.4-1,2.4-2.3v-4.4V71.1l6.8,11.4l1.5,2.4c0,0,0,0.1,0.1,0.1c0.1,0,0.1-0.1,0.1-0.1l1.2-2.4l6.9-13.9
		v13.9v4.3l0,0c0,0.2,0.1,0.3,0.1,0.3c0.1,0,0.2,0,0.3,0l0,0l3.9-0.6l0,0c0.1,0,0.2,0,0.2-0.1c0.1,0,0.1-0.1,0.1-0.3h0v-3.7V64.5
		C205,62.5,203.4,60.9,201.4,60.9"/>
	<path class="st2" d="M65.1,6c5.3,0,10.8,2.5,15.4,7.1c8.2,10.1,16.4,20.3,24.6,30.4c1.8-1.3,3.9-1.9,6.1-1.9
		c6,0,12.5,5.1,12.5,12.8v48.9c0,11.3-9.9,21.2-21.1,21.2H53.6c-5.1,0-9.8-3-11.8-7.8c-1.6-3.7-1.3-7.7,0.9-10.8
		c-10.1-8.2-20.2-16.4-30.3-24.5C5,73.9,1.7,62.4,10.9,53.2l41.6-41.6C56.2,7.9,60.5,6,65.1,6"/>
	<path class="st3" d="M65.1,6c5.3,0,10.8,2.5,15.4,7.1c8.2,10.1,16.4,20.3,24.6,30.4c1.8-1.3,3.9-1.9,6.1-1.9
		c6,0,12.5,5.1,12.5,12.8v48.9c0,11.3-9.9,21.2-21.1,21.2H53.6c-5.1,0-9.8-3-11.8-7.8c-1.6-3.7-1.3-7.7,0.9-10.8
		c-10.1-8.2-20.2-16.4-30.3-24.5C5,73.9,1.7,62.4,10.9,53.2l41.6-41.6C56.2,7.9,60.5,6,65.1,6"/>
	<path class="st1" d="M73,85.9h-4c-0.6,0-0.8-0.1-0.8-0.7V65.4c0-0.6,0.2-0.7,0.8-0.7h4c0.7,0,0.9,0.1,0.9,0.7v19.8
		C73.9,85.7,73.8,85.9,73,85.9"/>
	<path class="st1" d="M89.7,80.3c0.7-0.3,0.8-0.2,1,0.4l1.1,2.9c0.3,0.5,0.3,0.8-0.3,1.1c-2.3,1.3-5.1,1.6-7.2,1.6
		c-6.1,0-9.4-3.6-9.4-10.7c0-6.7,3.8-10.9,9.8-10.9c2.2,0,4.4,0.4,6.2,1.3c0.7,0.3,0.7,0.5,0.4,1.1l-1.1,3c-0.3,0.6-0.5,0.5-1.2,0.3
		c-1.4-0.4-2.7-0.7-3.9-0.7c-3.1,0-4.3,2.7-4.3,5.8c0,3.3,0.9,5.6,4.4,5.6C86.9,81.2,88.6,80.7,89.7,80.3"/>
	<path class="st1" d="M101.1,76.6c-1.4,0-3.6,0.3-3.6,2.8c0,1.8,1.3,2.5,3.4,2.5c0.6,0,2.2-0.1,3.3-0.5v-4.7H101.1z M109.1,84.9
		c-2.4,1.1-5.7,1.4-8.3,1.4c-7.1,0-9.1-2.9-9.1-6.5c0-4,2.7-7,8.3-7h4.3v-0.6c0-1.5-0.5-2.8-3.4-2.8c-1.6,0-4.1,0.3-5.5,0.7
		c-0.7,0.2-0.9,0-1-0.5l-0.6-2.7c-0.2-0.6,0-0.7,0.4-0.9c2.3-0.8,5-1.2,7.6-1.2c5.7,0,8.3,2.5,8.3,7.2v11.4
		C109.9,84,109.9,84.4,109.1,84.9"/>
	<path class="st1" d="M62.6,65.5c-1.1-0.4-2.4-0.6-4.1-0.6c-3.4,0-4.8,2.6-4.8,2.6l0-1.9c0,0-0.1-0.8-1.1-0.8h-1.8h-0.8h-1
		c-0.6,0-1.1,0.5-1.1,1.1l0,10.8c0,1.8-0.8,4.3-3.6,4.3c-4,0-3.7-4.8-3.7-4.8V65.6c0-0.4-0.4-0.9-1-0.9H36c-0.7,0-1,0.5-1,1.1v9.9
		c0,5,0.9,8.2,4.2,9.5c1.1,0.4,2.4,0.6,4.1,0.6c3.3,0,4.8-2.6,4.8-2.6V85c0,0,0.1,0.8,1.1,0.8h1.8v0h0.8h1c0.6,0,1.1-0.5,1.1-1.1
		l0-10.7c0-1.8,0.8-4.3,3.6-4.3c4,0,3.7,4.8,3.7,4.8v10.6c0,0.4,0.1,0.6,0.4,0.7c0.1,0,0.2,0,0.4,0H66c0.7,0,0.8-0.1,0.8-0.7V74.9
		C66.8,69.9,65.9,66.7,62.6,65.5"/>
	<path class="st1" d="M71.1,56.9c-0.7,0-1.1,0.7-1.1,1.6c0,1,0.3,1.6,1.1,1.6c0.8,0,1.1-0.8,1.1-1.6C72.1,57.6,71.9,56.9,71.1,56.9
		 M71,61c-1.5,0-2.2-0.9-2.2-2.6c0-1.6,0.8-2.6,2.2-2.6c1.5,0,2.2,1,2.2,2.5C73.3,60.1,72.6,61,71,61"/>
	<path class="st1" d="M75.5,58c-0.1,0-0.4,0-0.5,0.1V60c0.3,0.1,0.4,0.1,0.6,0.1c0.5,0,0.8-0.3,0.8-1.1C76.4,58.3,76.1,58,75.5,58
		 M74.8,62.4h-0.7c-0.1,0-0.1,0-0.1-0.1v-4.6c0-0.1,0-0.2,0.1-0.2c0.5-0.2,1.1-0.3,1.6-0.3c1.3,0,1.8,0.9,1.8,1.9
		c0,1.1-0.5,1.9-1.7,1.9c-0.3,0-0.5,0-0.8-0.1v1.3C75,62.4,75,62.4,74.8,62.4"/>
	<path class="st1" d="M79.7,58c-0.5,0-0.7,0.4-0.7,1.1c0,0.7,0.2,1.1,0.7,1.1c0.5,0,0.7-0.5,0.7-1.1C80.5,58.4,80.3,58,79.7,58
		 M79.7,61c-1.2,0-1.8-0.7-1.8-1.9c0-1.2,0.7-1.9,1.8-1.9c1.2,0,1.8,0.7,1.8,1.9C81.5,60.3,80.9,61,79.7,61"/>
	<path class="st1" d="M83.1,60.9h-0.7c-0.1,0-0.1,0-0.1-0.1v-3c0-0.4,0.1-0.6,0.5-0.6c0.2,0,0.3,0,0.5,0c0.6,0,1.3,0.2,1.7,0.5
		c0.1,0.1,0.1,0.1,0,0.2l-0.4,0.6c-0.1,0.1-0.1,0.1-0.2,0c-0.3-0.2-0.6-0.3-0.9-0.3c-0.1,0-0.2,0-0.3,0v2.7
		C83.2,60.9,83.2,60.9,83.1,60.9"/>
	<path class="st1" d="M87.7,60.9C87.3,61,87,61,86.7,61c-0.8,0-1.1-0.3-1.1-1v-2h-0.5C85,58,85,57.9,85,57.8v-0.4
		c0-0.1,0-0.1,0.1-0.1l0.5-0.1l0.1-0.7c0-0.1,0.1-0.2,0.2-0.2l0.7-0.2c0.1,0,0.1,0,0.1,0.1v1h0.8c0.1,0,0.1,0,0.1,0.1v0.5
		c0,0.1,0,0.1-0.1,0.1h-0.8v1.8c0,0.3,0.1,0.4,0.4,0.4c0.1,0,0.4,0,0.5,0c0.1,0,0.1,0,0.1,0.1l0.1,0.6
		C87.8,60.8,87.8,60.9,87.7,60.9"/>
	<path class="st1" d="M90.4,60.1v-2.8c0-0.1,0-0.1,0.2-0.1h0.7c0.1,0,0.2,0,0.2,0.1v3c0,0.3-0.1,0.5-0.4,0.6c-0.2,0-0.7,0.1-1,0.1
		c-1.4,0-1.9-0.5-1.9-1.8v-1.8c0-0.1,0-0.1,0.2-0.1H89c0.1,0,0.1,0,0.1,0.1v1.9c0,0.6,0.1,0.9,0.8,0.9
		C90.1,60.2,90.2,60.2,90.4,60.1"/>
	<path class="st1" d="M93.3,58v2.8c0,0.1,0,0.1-0.1,0.1h-0.7c-0.1,0-0.1,0-0.1-0.1v-3c0-0.3,0.1-0.5,0.4-0.6c0.2,0,0.8-0.1,1-0.1
		c1.3,0,1.9,0.5,1.9,1.8v1.9c0,0.1,0,0.1-0.1,0.1h-0.7c-0.1,0-0.2,0-0.2-0.1v-1.9c0-0.6-0.2-0.9-0.8-0.9C93.7,58,93.5,58,93.3,58"/>
	<path class="st1" d="M97.4,60.9h-0.7c-0.1,0-0.2,0-0.2-0.1v-3.5c0-0.1,0-0.1,0.2-0.1h0.7c0.1,0,0.2,0,0.2,0.1v3.5
		C97.6,60.9,97.5,60.9,97.4,60.9 M97.1,56.8c-0.3,0-0.6-0.3-0.6-0.6s0.3-0.6,0.6-0.6c0.3,0,0.6,0.3,0.6,0.6S97.4,56.8,97.1,56.8"/>
	<path class="st1" d="M100.2,60.1c0.1,0,0.4,0,0.5-0.1v-2c-0.3-0.1-0.4-0.1-0.6-0.1c-0.5,0-0.8,0.3-0.8,1.1
		C99.4,59.9,99.7,60.1,100.2,60.1 M100,57.1c0.2,0,0.5,0,0.7,0.1v-1.3c0-0.1,0-0.1,0.2-0.1h0.7c0.1,0,0.2,0,0.2,0.1v4.4
		c0,0.1,0,0.2,0,0.3c0,0.3-1.3,0.4-1.7,0.4c-1.4,0-1.8-0.8-1.8-1.9C98.3,58,98.8,57.1,100,57.1"/>
	<path class="st1" d="M104.2,59.3c-0.3,0-0.6,0-0.6,0.5c0,0.3,0.2,0.4,0.6,0.4c0.1,0,0.4,0,0.6-0.1v-0.9H104.2z M105.6,60.8
		c-0.4,0.2-1,0.3-1.5,0.3c-1.3,0-1.7-0.5-1.7-1.2c0-0.7,0.5-1.3,1.5-1.3h0.8v-0.1c0-0.3-0.1-0.5-0.6-0.5c-0.3,0-0.7,0.1-1,0.1
		c-0.1,0-0.2,0-0.2-0.1l-0.1-0.5c0-0.1,0-0.1,0.1-0.2c0.4-0.1,0.9-0.2,1.4-0.2c1,0,1.5,0.5,1.5,1.3v2.1
		C105.8,60.6,105.7,60.7,105.6,60.8"/>
	<path class="st1" d="M108.3,60.1c0.1,0,0.4,0,0.5-0.1v-2c-0.2-0.1-0.4-0.1-0.6-0.1c-0.5,0-0.8,0.3-0.8,1.1
		C107.5,59.9,107.8,60.1,108.3,60.1 M108.1,57.1c0.2,0,0.5,0,0.8,0.1v-1.3c0-0.1,0-0.1,0.2-0.1h0.7c0.1,0,0.2,0,0.2,0.1v4.4
		c0,0.1,0,0.2,0,0.3c0,0.3-1.3,0.4-1.7,0.4c-1.4,0-1.8-0.8-1.8-1.9C106.4,58,106.9,57.1,108.1,57.1"/>
	<path class="st1" d="M42.7,60.6l1.5,0.3c0.2,0,0.2,0,0.4-0.1l1.9-2.8c0.1-0.1,0-0.2-0.1-0.3l-2.2-0.4c-0.2-0.1-0.4-0.1-0.5,0.2
		l-1.1,2.8C42.5,60.5,42.5,60.6,42.7,60.6"/>
</g>
</svg>
