<svg xmlns="http://www.w3.org/2000/svg" viewBox="0 0 947 247" width="947" height="247">
	<style>
		tspan { white-space:pre }
		.shp0 { fill: #e30613 } 
		.shp1 { fill: #ffffff } 
		.shp2 { fill: #000000 } 
		.shp3 { fill: #52ae32 } 
	</style>
	<g id="Layer">
		<g id="Layer">
			<path id="Layer" class="shp0" d="M231.49 0.02L231.49 166.79L846.54 166.79L846.55 166.79L846.55 236.69C846.55 236.7 846.55 236.72 846.55 236.74C846.55 242.24 851.01 246.72 856.53 246.72C859.26 246.72 861.74 245.61 863.55 243.84L863.56 243.84L946.37 166.8L946.37 0.02L231.49 0.02Z" />
		</g>
		<path id="Layer" class="shp1" d="M379.96 41.84L388.26 41.84L388.26 131.29L364.97 131.29L364.97 90.14L345.97 109.96L343.28 109.96L324.31 90.14L324.31 131.29L301 131.29L301 41.84L309.26 41.84L344.73 80.45L379.96 41.84Z" />
		<path id="Layer" fill-rule="evenodd" class="shp1" d="M501 120.18L495.87 131.3L471.53 131.3L471.53 128.08L512.43 41.23L523.13 41.23L563.66 128.08L563.66 131.3L539.6 131.3L534.38 120.18L501 120.18ZM508.48 100.72L526.97 100.72L517.68 79.18L508.48 100.72Z" />
		<path id="Layer" class="shp1" d="M265.28 47.77L265.28 100.46L265.28 131.29L288.58 131.29L288.58 100.46L288.58 42.12L265.28 42.12L265.28 47.77Z" />
		<g id="Layer">
			<path id="Layer" fill-rule="evenodd" class="shp1" d="M471.56 103.61C471.56 118.87 461.62 130.77 443.26 130.77L400.37 130.77L400.37 41.73L439.7 41.73C456.29 41.73 467.87 52.59 467.87 69.12C467.87 74.58 464.95 80.92 460.49 84.52C467.72 88.21 471.56 95.47 471.56 103.61ZM423.7 76.9L438.07 76.9C442.54 76.9 444.8 73.44 444.95 69.87C445.09 65.94 442.78 61.99 438.07 61.99L423.7 61.99L423.7 76.9ZM448.5 103.62C448.64 100.93 447.49 98.15 445.34 96.62C444.17 96.11 443.04 95.74 441.5 95.74L423.7 95.74L423.7 110.48L441.65 110.48C446.11 110.48 448.13 107.19 448.5 103.62Z" />
		</g>
		<path id="Layer" class="shp1" d="M880.56 62.42L880.56 42.17L819.94 42.17L819.94 110.44L774.79 110.44L774.79 42.17L751.5 42.17L751.5 131.3L819.94 131.3L880.56 131.3L880.56 110.02L843.24 110.02L843.24 95.51L866.67 95.51L866.67 77.94L843.24 77.94L843.24 62.42L880.56 62.42Z" />
		<path id="Layer" class="shp1" d="M642.57 41.48L630.97 41.48L549.84 41.48L549.84 61.9L573.15 61.9L573.15 130.26L595.7 130.26L595.7 61.9L630.97 61.9L630.97 99.99L630.97 130.65L654.2 130.65L654.2 99.99L654.2 61.9L654.2 60.36L654.2 42.15L654.2 41.48L642.57 41.48Z" />
		<g id="Layer">
			<path id="Layer" fill-rule="evenodd" class="shp1" d="M739.54 103.67C739.54 118.92 729.61 130.79 711.28 130.79L668.31 130.79L668.31 41.77L707.67 41.77C724.28 41.77 735.84 52.6 735.84 69.16C735.84 74.61 732.9 80.99 728.48 84.55C735.71 88.26 739.54 95.52 739.54 103.67ZM706.03 62.04L691.43 62.04L691.43 76.93L706.03 76.93C710.51 76.93 712.81 73.48 712.92 69.91C713.03 65.97 710.76 62.03 706.03 62.03L706.03 62.04ZM716.48 103.69C716.62 100.99 715.43 98.21 713.3 96.67C712.14 96.17 710.99 95.78 709.45 95.78L691.65 95.78L691.65 110.53L709.62 110.53C714.06 110.53 716.13 107.24 716.48 103.69Z" />
		</g>
		<path id="Layer" class="shp2" d="M0.29 0.02L231.5 0.02L231.5 166.79L0.29 166.79L0.29 0.02Z" />
		<g id="Layer">
			<path id="Layer" class="shp3" d="M190.3 35.81L40.45 35.81C36.84 35.81 33.88 38.72 33.88 42.34L33.88 82.57L33.88 124.11C33.88 127.72 36.84 130.62 40.45 130.62L190.29 130.65C193.92 130.65 196.87 127.73 196.87 124.12L196.87 42.34C196.88 38.73 193.93 35.81 190.3 35.81Z" />
			<path id="Layer" class="shp1" d="M160.6 89L157.16 85.59L151.91 80.37L152.6 80.22C157.3 79.27 160.45 76.34 160.45 70.7C160.45 64.13 154.9 60.46 149.34 60.44L137.75 60.44C137.62 60.44 137.51 60.47 137.46 60.53C137.38 60.57 137.33 60.71 137.33 60.92L137.33 64.35L137.3 85.55L137.3 89.55C137.35 89.74 137.4 89.89 137.47 89.91C137.57 89.96 137.7 89.96 137.88 89.96L137.94 89.93L137.94 89.96L142.73 89.26C142.86 89.26 142.93 89.22 143 89.18C143.09 89.13 143.13 88.99 143.13 88.77L143.13 85.55L143.13 85.36L143.14 66.06L149.57 66.07C152.35 66.11 154.77 68.04 154.77 70.63C154.76 73.2 152.81 74.53 150.08 75.21C147.28 75.92 146.01 77.85 145.99 79.95C145.98 81.28 146.47 82.67 147.55 83.85C148.47 84.96 149.01 85.48 149.1 85.55C149.13 85.6 149.16 85.6 149.16 85.6L156.87 93.36C157.29 93.65 157.85 93.86 158.47 93.86C160.07 93.86 161.43 92.55 161.43 91C161.44 90.07 161.05 89.46 160.6 89Z" />
			<path id="Layer" class="shp1" d="M98.05 81.49C97.54 81.19 97.01 81.03 96.45 81.03C95.61 81.06 94.85 81.35 94.33 81.91C94.14 82.14 93.76 82.47 93.63 82.61C91.62 84.49 88.98 85.48 86.22 85.48C80.21 85.47 75.34 80.6 75.34 74.65C75.35 68.69 80.23 63.85 86.24 63.86C88.25 63.87 90.99 64.22 93.38 66.49C93.38 66.49 93.42 66.52 93.44 66.52C93.52 66.58 93.66 66.6 93.86 66.57L99.01 65.85C99.52 65.75 99.26 65.37 99.26 65.37C98.36 63.69 94.53 57.9 85.74 57.99C76.42 58.08 69.45 65.3 69.36 74.73C69.36 78.86 70.87 82.62 73.38 85.52C76.48 89.14 81.11 91.49 86.22 91.49C92.49 91.49 96.58 88.22 98.48 86.28C98.48 86.28 98.72 85.96 98.96 85.54C99.19 85.13 99.42 84.56 99.39 83.95C99.4 82.95 98.88 82.01 98.05 81.49Z" />
			<path id="Layer" class="shp1" d="M129.96 59.32C127.55 59.31 126.17 60.97 125.07 63.22L118.5 77.07C118.5 77.07 118.45 77.26 118.32 77.26C118.23 77.26 118.13 77.07 118.13 77.07L112.55 67.61L112.55 67.57L110.81 64.6C110.72 64.47 110.62 64.35 110.49 64.35C110.39 64.35 110.34 64.35 110.34 64.35L102.68 65.43C102.6 65.43 102.5 65.51 102.46 65.51C102.38 65.55 102.33 65.66 102.33 65.89L102.32 69.35L102.31 85.53L102.31 90.91C102.31 92.49 103.64 93.74 105.23 93.74C106.81 93.75 108.13 92.49 108.14 90.91L108.15 85.55L108.16 71.69L116.51 85.55L118.29 88.54C118.29 88.54 118.37 88.65 118.47 88.65C118.55 88.65 118.58 88.54 118.58 88.54L120.07 85.57L128.51 68.63L128.5 85.57L128.5 90.88C128.53 91.06 128.6 91.18 128.69 91.22C128.77 91.26 128.88 91.26 129.02 91.26L129.06 91.23L133.94 90.57L133.91 90.57C134.02 90.54 134.11 90.52 134.18 90.48C134.27 90.42 134.31 90.3 134.31 90.12L134.32 85.57L134.33 63.7C134.33 61.28 132.34 59.32 129.96 59.32Z" />
			<path id="Layer" fill-rule="evenodd" class="shp1" d="M75.43 102.76C75.68 102.87 75.94 103.01 76.14 103.18C76.33 103.36 76.51 103.55 76.62 103.79C76.76 103.98 76.84 104.22 76.91 104.48C76.96 104.72 77 104.95 77 105.24C77 105.7 76.91 106.07 76.73 106.45C76.54 106.82 76.3 107.12 76.01 107.39C75.72 107.69 75.35 107.87 74.94 108.01C74.53 108.16 74.09 108.21 73.63 108.21L70.12 108.21C69.81 108.21 69.6 108.17 69.48 108.04C69.35 107.9 69.31 107.71 69.31 107.4L69.31 99.05C69.31 98.76 69.36 98.55 69.48 98.43C69.59 98.29 69.82 98.21 70.13 98.21L73.45 98.18C73.89 98.18 74.31 98.26 74.7 98.35C75.08 98.45 75.41 98.59 75.68 98.79C75.96 98.98 76.16 99.23 76.33 99.55C76.5 99.85 76.56 100.24 76.56 100.69C76.56 101.1 76.45 101.48 76.27 101.85C76.03 102.18 75.75 102.45 75.43 102.64L75.43 102.76ZM73.41 102.13C73.56 102.13 73.7 102.1 73.83 102.04C74.01 102.04 74.16 101.95 74.3 101.87C74.41 101.79 74.53 101.65 74.62 101.5C74.71 101.36 74.75 101.16 74.75 100.88C74.75 100.54 74.65 100.28 74.42 100.1C74.19 99.86 73.87 99.78 73.5 99.78L71.07 99.78L71.07 102.13L73.41 102.13ZM75.19 105.11C75.19 104.64 75.05 104.3 74.75 103.98C74.45 103.69 74.03 103.55 73.47 103.55L71.08 103.55L71.08 106.66L73.46 106.66C73.79 106.66 74.08 106.61 74.31 106.49C74.54 106.41 74.7 106.29 74.86 106.13C74.99 105.99 75.06 105.81 75.13 105.62C75.15 105.44 75.19 105.28 75.19 105.11Z" />
			<path id="Layer" fill-rule="evenodd" class="shp1" d="M83.7 107.42C83.7 107.65 83.6 107.81 83.41 107.88C83.22 107.99 82.97 108.07 82.75 108.13C82.52 108.19 82.24 108.23 82 108.31C81.75 108.35 81.49 108.37 81.21 108.37C80.98 108.4 80.74 108.4 80.49 108.4C79.88 108.4 79.35 108.34 78.93 108.2C78.52 108.06 78.19 107.88 77.96 107.7C77.69 107.47 77.53 107.22 77.43 106.94C77.34 106.66 77.29 106.36 77.29 106.01C77.29 105.71 77.37 105.35 77.46 105.04C77.56 104.75 77.75 104.49 78.01 104.24C78.25 104.01 78.58 103.81 78.98 103.69C79.37 103.52 79.87 103.46 80.45 103.46L82.03 103.46L82.04 103.19C82.04 103.05 82.01 102.86 81.99 102.73C81.95 102.56 81.89 102.44 81.77 102.3C81.64 102.21 81.5 102.12 81.33 102.05C81.13 101.97 80.86 101.96 80.55 101.96C80.23 101.95 79.9 101.97 79.5 102.04C79.13 102.1 78.81 102.15 78.57 102.26C78.47 102.27 78.38 102.3 78.34 102.26C78.29 102.26 78.25 102.2 78.25 102.11L78.05 101.3C78.02 101.15 78.05 101.06 78.16 101C78.57 100.86 79.01 100.75 79.49 100.71C79.95 100.63 80.41 100.61 80.84 100.61C81.83 100.61 82.56 100.84 83.03 101.27C83.47 101.69 83.73 102.32 83.73 103.16L83.7 107.42ZM80.61 104.75C80.47 104.75 80.29 104.75 80.1 104.78C79.92 104.78 79.74 104.84 79.57 104.92C79.4 105.01 79.28 105.12 79.16 105.29C79.06 105.47 78.99 105.67 78.99 105.98C78.99 106.39 79.12 106.67 79.41 106.83C79.68 106.98 80.03 107.06 80.5 107.06L80.78 107.06C80.89 107.06 81.02 107.03 81.16 107.03C81.31 107 81.43 106.98 81.59 106.97C81.73 106.93 81.86 106.91 81.98 106.84L81.98 104.75L80.61 104.75Z" />
			<path id="Layer" class="shp1" d="M87.52 102.01L87.08 102.01C86.88 102.01 86.65 102.05 86.41 102.1L86.4 108.01C86.4 108.1 86.36 108.19 86.32 108.2C86.29 108.23 86.21 108.24 86.09 108.24L85 108.24C84.89 108.24 84.82 108.23 84.8 108.2C84.75 108.17 84.74 108.1 84.75 108L84.75 101.89C84.75 101.56 84.81 101.31 84.93 101.09C85.06 100.9 85.29 100.8 85.69 100.73C85.79 100.73 85.91 100.69 86.07 100.69C86.24 100.65 86.41 100.65 86.58 100.63C86.8 100.62 86.95 100.63 87.11 100.62L87.57 100.62C88.21 100.62 88.76 100.66 89.21 100.8C89.69 100.94 90.04 101.16 90.35 101.44C90.64 101.76 90.87 102.11 91.02 102.58C91.13 103.04 91.21 103.57 91.21 104.27L91.21 108.02C91.21 108.11 91.18 108.2 91.13 108.21C91.13 108.25 91.04 108.25 90.94 108.25L89.83 108.25C89.73 108.25 89.66 108.25 89.61 108.21C89.55 108.2 89.53 108.11 89.53 108.02L89.54 104.21C89.54 103.84 89.5 103.52 89.44 103.27C89.38 103 89.27 102.76 89.14 102.57C88.97 102.39 88.77 102.27 88.52 102.16C88.24 102.06 87.94 102.01 87.52 102.01Z" />
			<path id="Layer" class="shp1" d="M95.51 106.95C95.83 106.95 96.15 106.94 96.48 106.85C96.76 106.76 97.01 106.68 97.2 106.58C97.31 106.54 97.39 106.54 97.43 106.54C97.48 106.57 97.52 106.62 97.52 106.68L97.89 107.52C97.98 107.66 97.95 107.8 97.81 107.88C97.42 108.08 97.01 108.24 96.55 108.32C96.09 108.37 95.65 108.42 95.25 108.42C94.18 108.42 93.37 108.06 92.8 107.42C92.24 106.78 91.95 105.84 91.95 104.56C91.95 103.96 92.03 103.42 92.2 102.93C92.37 102.45 92.58 102.03 92.89 101.67C93.2 101.34 93.55 101.06 94 100.88C94.41 100.7 94.89 100.61 95.44 100.61C95.82 100.61 96.22 100.64 96.57 100.72C96.94 100.81 97.28 100.92 97.62 101.08C97.71 101.14 97.76 101.22 97.76 101.22C97.81 101.27 97.76 101.33 97.71 101.45L97.35 102.28C97.34 102.38 97.27 102.42 97.25 102.43C97.19 102.46 97.14 102.44 97.02 102.38C96.79 102.32 96.54 102.21 96.28 102.16C96.04 102.11 95.76 102.06 95.5 102.06C95.16 102.06 94.88 102.14 94.65 102.28C94.42 102.43 94.22 102.61 94.07 102.83C93.93 103.06 93.82 103.31 93.74 103.63C93.7 103.92 93.66 104.24 93.66 104.56C93.66 104.92 93.69 105.21 93.72 105.48C93.81 105.8 93.89 106.03 94.01 106.27C94.18 106.49 94.34 106.66 94.59 106.8C94.84 106.91 95.15 106.95 95.51 106.95Z" />
			<path id="Layer" fill-rule="evenodd" class="shp1" d="M105.12 104.47C105.12 105.74 104.83 106.73 104.23 107.41C103.67 108.07 102.78 108.44 101.61 108.44C100.44 108.43 99.59 108.07 99.02 107.41C98.45 106.76 98.18 105.78 98.18 104.53C98.18 103.88 98.26 103.32 98.43 102.85C98.58 102.39 98.84 101.96 99.12 101.63C99.42 101.31 99.83 101.05 100.25 100.88C100.68 100.71 101.14 100.63 101.65 100.63C102.79 100.63 103.68 100.97 104.23 101.63C104.83 102.34 105.12 103.28 105.12 104.47ZM103.43 104.52C103.43 104.18 103.4 103.83 103.35 103.54C103.3 103.22 103.18 102.97 103.07 102.76C102.94 102.49 102.77 102.32 102.54 102.16C102.31 102.05 102.04 101.97 101.68 101.97C101.39 101.97 101.11 102.05 100.89 102.16C100.66 102.31 100.48 102.47 100.33 102.69C100.15 102.89 100.06 103.16 99.97 103.48C99.92 103.8 99.86 104.12 99.86 104.46C99.86 105.25 100.01 105.87 100.25 106.34C100.5 106.78 100.97 107.03 101.62 107.03C101.98 107.03 102.23 106.95 102.48 106.83C102.7 106.68 102.87 106.5 103.03 106.26C103.17 106.03 103.27 105.75 103.33 105.47C103.39 105.17 103.43 104.85 103.43 104.52Z" />
			<path id="Layer" fill-rule="evenodd" class="shp1" d="M121.41 107.46C121.41 107.69 121.3 107.87 121.11 107.92C120.91 108.02 120.68 108.14 120.42 108.16C120.17 108.26 119.91 108.33 119.68 108.35C119.4 108.4 119.15 108.41 118.9 108.44L118.16 108.44C117.51 108.44 116.98 108.4 116.55 108.26C116.14 108.13 115.81 107.92 115.56 107.74C115.32 107.51 115.14 107.24 115.04 106.98C114.96 106.69 114.91 106.38 114.91 106.04C114.91 105.71 114.97 105.39 115.06 105.09C115.17 104.79 115.35 104.48 115.61 104.26C115.86 104.03 116.21 103.83 116.61 103.69C116.99 103.55 117.5 103.47 118.06 103.47L119.69 103.47L119.69 103.23C119.69 103.06 119.68 102.87 119.63 102.73C119.6 102.58 119.54 102.41 119.43 102.31C119.32 102.2 119.15 102.13 118.97 102.04C118.77 101.99 118.5 101.94 118.19 101.94C117.86 101.94 117.5 101.99 117.12 102.04C116.74 102.09 116.42 102.17 116.17 102.24C116.08 102.28 116.02 102.28 115.95 102.28C115.9 102.24 115.86 102.19 115.85 102.09L115.65 101.28C115.61 101.11 115.65 101.01 115.79 100.97C116.17 100.84 116.63 100.72 117.1 100.64C117.6 100.56 118.05 100.55 118.47 100.55C119.49 100.55 120.2 100.77 120.68 101.22C121.15 101.66 121.4 102.29 121.4 103.14L121.4 107.46L121.41 107.46ZM118.29 104.75C118.1 104.75 117.92 104.75 117.74 104.79C117.56 104.79 117.37 104.84 117.21 104.93C117.04 105.04 116.91 105.15 116.79 105.3C116.68 105.49 116.64 105.71 116.64 105.97C116.64 106.38 116.77 106.68 117.05 106.86C117.33 107 117.71 107.09 118.17 107.09C118.25 107.09 118.35 107.08 118.46 107.09C118.56 107.09 118.7 107.06 118.84 107.06C118.97 107.02 119.11 107 119.26 106.97C119.41 106.96 119.55 106.89 119.69 106.86L119.69 104.75L118.29 104.75Z" />
			<path id="Layer" fill-rule="evenodd" class="shp1" d="M132.19 107.47C132.19 107.71 132.09 107.88 131.92 107.94C131.7 108.04 131.46 108.14 131.22 108.17C130.97 108.27 130.72 108.35 130.47 108.35C130.22 108.41 129.94 108.43 129.68 108.45L128.96 108.45C128.34 108.45 127.79 108.4 127.38 108.27C126.96 108.14 126.63 107.93 126.39 107.74C126.15 107.52 125.95 107.26 125.86 106.98C125.76 106.7 125.71 106.4 125.71 106.07C125.71 105.73 125.76 105.4 125.89 105.1C126 104.81 126.17 104.49 126.44 104.27C126.69 104.04 127.02 103.84 127.42 103.7C127.81 103.56 128.31 103.48 128.89 103.48L130.52 103.49L130.52 103.24C130.52 103.07 130.48 102.88 130.44 102.74C130.41 102.59 130.34 102.43 130.24 102.32C130.13 102.19 129.96 102.14 129.77 102.05C129.58 102 129.31 101.95 129.03 101.95C128.7 101.95 128.34 102 127.94 102.05C127.56 102.09 127.25 102.16 127.01 102.25C126.91 102.29 126.83 102.29 126.77 102.29C126.72 102.25 126.69 102.19 126.68 102.09L126.46 101.3C126.43 101.12 126.46 101.02 126.59 100.98C127.01 100.85 127.42 100.73 127.91 100.65C128.42 100.59 128.86 100.56 129.31 100.56C130.31 100.56 131.04 100.76 131.51 101.23C132.01 101.67 132.2 102.3 132.2 103.15L132.2 107.47L132.19 107.47ZM129.1 104.76C128.93 104.76 128.74 104.76 128.55 104.8C128.38 104.8 128.19 104.84 128.02 104.94C127.85 105.05 127.73 105.16 127.59 105.31C127.51 105.51 127.41 105.72 127.41 105.98C127.41 106.39 127.58 106.69 127.85 106.87C128.14 107.01 128.5 107.11 128.97 107.11C129.05 107.11 129.12 107.1 129.25 107.1C129.36 107.1 129.5 107.06 129.64 107.06C129.79 107.03 129.88 107.01 130.06 106.98C130.23 106.97 130.34 106.9 130.49 106.87L130.49 104.76L129.1 104.76Z" />
			<path id="Layer" fill-rule="evenodd" class="shp1" d="M144 100.58C145.12 100.58 145.93 100.88 146.48 101.44C147.01 102 147.28 102.79 147.28 103.75C147.28 104.02 147.25 104.23 147.2 104.36C147.12 104.55 147.05 104.65 146.93 104.77C146.85 104.86 146.7 104.95 146.56 104.96C146.42 105 146.27 105.01 146.12 105.01L142.29 105C142.29 105.42 142.33 105.71 142.42 105.97C142.53 106.24 142.67 106.44 142.88 106.58C143.05 106.77 143.26 106.86 143.53 106.94C143.75 106.99 144 107.03 144.28 107.03C144.61 107.03 144.9 106.99 145.2 106.94C145.5 106.84 145.77 106.77 145.99 106.64C146.13 106.58 146.26 106.63 146.29 106.75L146.7 107.54C146.78 107.72 146.73 107.81 146.61 107.9C146.22 108.1 145.85 108.26 145.39 108.36C144.97 108.45 144.53 108.47 144.16 108.47C142.99 108.47 142.09 108.17 141.49 107.54C140.87 106.9 140.56 105.9 140.56 104.58C140.56 103.96 140.62 103.37 140.81 102.89C140.95 102.39 141.2 101.97 141.52 101.63C141.84 101.29 142.19 101.05 142.61 100.89C143.03 100.67 143.53 100.58 144 100.58ZM144.03 101.97C143.76 101.97 143.55 102.02 143.34 102.12C143.12 102.22 142.95 102.37 142.82 102.55C142.67 102.73 142.55 102.94 142.45 103.15C142.36 103.34 142.32 103.58 142.31 103.85L145.64 103.85C145.64 103.57 145.63 103.34 145.56 103.11C145.53 102.88 145.46 102.7 145.32 102.51C145.19 102.36 145.04 102.22 144.84 102.12C144.62 102.02 144.36 101.97 144.03 101.97Z" />
			<path id="Layer" fill-rule="evenodd" class="shp1" d="M161.43 107.49C161.43 107.74 161.32 107.91 161.16 107.96C160.96 108.06 160.72 108.18 160.46 108.2C160.23 108.3 159.96 108.37 159.7 108.42C159.45 108.43 159.18 108.45 158.92 108.48L158.18 108.48C157.54 108.48 157.02 108.43 156.58 108.29C156.17 108.18 155.86 107.96 155.6 107.77C155.36 107.55 155.18 107.29 155.09 107.01C155 106.73 154.95 106.41 154.95 106.08C154.95 105.74 155 105.43 155.1 105.11C155.19 104.82 155.39 104.51 155.66 104.3C155.89 104.07 156.23 103.87 156.63 103.73C157.05 103.58 157.53 103.51 158.1 103.51L159.75 103.51L159.75 103.26C159.75 103.09 159.7 102.9 159.67 102.76C159.62 102.61 159.56 102.48 159.44 102.35C159.32 102.22 159.16 102.16 158.98 102.1C158.78 102.04 158.54 101.99 158.22 101.99C157.88 101.99 157.55 102.04 157.17 102.09C156.79 102.13 156.46 102.22 156.23 102.29C156.12 102.32 156.04 102.32 155.99 102.32C155.91 102.29 155.89 102.23 155.89 102.13L155.67 101.32C155.66 101.17 155.67 101.07 155.82 101.03C156.23 100.9 156.65 100.78 157.13 100.7C157.63 100.62 158.1 100.6 158.5 100.6C159.5 100.6 160.24 100.82 160.71 101.29C161.18 101.72 161.41 102.37 161.41 103.2L161.41 107.49L161.43 107.49ZM159.72 104.79L158.35 104.79C158.18 104.79 157.99 104.79 157.84 104.82C157.62 104.82 157.43 104.87 157.27 104.97C157.09 105.07 156.97 105.19 156.84 105.34C156.76 105.53 156.67 105.73 156.67 106.01C156.67 106.45 156.82 106.73 157.09 106.9C157.38 107.04 157.75 107.13 158.22 107.13C158.28 107.13 158.39 107.12 158.49 107.12C158.63 107.12 158.76 107.09 158.88 107.09C159.02 107.06 159.17 107.04 159.31 107C159.45 107 159.6 106.96 159.72 106.9L159.72 104.79Z" />
			<path id="Layer" class="shp1" d="M115.22 98.27C115.18 98.22 115.09 98.21 114.94 98.21L110.87 98.2C110.39 98.2 109.98 98.28 109.65 98.42C109.32 98.6 109.05 98.75 108.85 99C108.65 99.25 108.52 99.5 108.44 99.83C108.34 100.13 108.31 100.44 108.31 100.81L108.3 107.98C108.3 108.08 108.33 108.21 108.39 108.22C108.44 108.27 108.53 108.26 108.64 108.27L109.08 108.26C109.4 108.27 110.06 108.09 110.06 107.15L110.06 103.86L114.41 103.87C114.55 103.87 114.64 103.83 114.65 103.76C114.7 103.73 114.7 103.63 114.7 103.53L114.7 102.7C114.7 102.6 114.7 102.5 114.66 102.45C114.63 102.41 114.56 102.39 114.41 102.39L110.06 102.38L110.06 100.7C110.06 100.41 110.14 100.17 110.29 100C110.44 99.83 110.7 99.78 111.05 99.78L114.93 99.78C115.06 99.78 115.16 99.74 115.18 99.69C115.24 99.64 115.24 99.55 115.24 99.44L115.24 98.54C115.26 98.42 115.26 98.35 115.22 98.27Z" />
			<path id="Layer" fill-rule="evenodd" class="shp1" d="M139.95 104.47C139.95 105.03 139.88 105.58 139.73 106.1C139.6 106.55 139.38 106.99 139.08 107.33C138.78 107.7 138.4 107.95 137.94 108.18C137.47 108.38 136.91 108.48 136.3 108.48C135.8 108.48 135.31 108.43 134.78 108.38C134.26 108.29 133.78 108.17 133.34 107.95C133.25 107.92 133.2 107.87 133.17 107.82C133.13 107.77 133.13 107.69 133.13 107.6L133.14 98.88C133.14 97.99 133.76 97.8 134.08 97.8L134.54 97.81C134.64 97.81 134.72 97.79 134.78 97.87C134.78 97.87 134.81 97.92 134.81 98.05L134.81 100.85C135.1 100.78 135.4 100.71 135.74 100.67C136.09 100.59 136.39 100.58 136.66 100.58C137.23 100.58 137.72 100.68 138.15 100.87C138.57 101.04 138.91 101.35 139.18 101.68C139.43 102 139.62 102.46 139.76 102.93C139.88 103.36 139.95 103.9 139.95 104.47ZM138.18 104.55C138.18 103.68 138.04 103.08 137.7 102.66C137.39 102.21 136.93 102.01 136.37 102.01C136.2 102.01 135.97 102.04 135.7 102.07C135.39 102.11 135.12 102.17 134.81 102.26L134.81 106.86C135.05 106.92 135.26 106.97 135.53 107.01C135.79 107.02 136.01 107.05 136.18 107.05C136.5 107.05 136.78 107 137.02 106.9C137.29 106.8 137.48 106.66 137.66 106.48C137.83 106.27 137.99 106 138.07 105.7C138.17 105.37 138.19 104.97 138.18 104.55Z" />
			<path id="Layer" class="shp1" d="M151 107.95L150.9 107.16C150.87 107.07 150.87 107.02 150.87 107.02C150.81 106.98 150.76 106.98 150.67 106.98C150.61 106.99 150.52 106.99 150.43 107.01C150.32 107.02 150.25 107.02 150.16 107.02C149.94 107.01 149.83 106.97 149.75 106.89C149.69 106.79 149.66 106.64 149.66 106.38L149.67 98.04C149.67 97.93 149.66 97.87 149.59 97.85C149.54 97.8 149.46 97.8 149.37 97.8L148.9 97.8C148.58 97.8 147.97 97.99 147.96 98.84L147.95 106.76C147.95 107.4 148.06 107.83 148.32 108.08C148.57 108.36 148.96 108.45 149.51 108.45C149.69 108.45 149.92 108.45 150.15 108.41C150.42 108.4 150.62 108.36 150.82 108.28C150.91 108.22 150.95 108.18 150.99 108.14C151.02 108.12 151.02 108.07 151 107.95Z" />
			<path id="Layer" class="shp1" d="M154.69 107.96L154.59 107.17C154.59 107.09 154.58 107.03 154.58 107.03C154.5 106.99 154.47 106.99 154.39 106.99C154.31 107 154.22 107 154.14 107C154.03 107.03 153.95 107.03 153.89 107.03C153.67 107.03 153.55 106.99 153.47 106.89C153.43 106.84 153.37 106.65 153.37 106.39L153.38 98.05C153.38 97.94 153.37 97.88 153.29 97.86C153.26 97.81 153.2 97.81 153.1 97.81L152.63 97.81C152.33 97.81 151.71 98 151.68 98.9L151.67 106.77C151.67 107.41 151.78 107.82 152.05 108.09C152.29 108.37 152.69 108.46 153.23 108.46C153.43 108.46 153.64 108.46 153.89 108.42C154.14 108.41 154.35 108.37 154.55 108.28C154.66 108.25 154.7 108.19 154.7 108.19C154.73 108.12 154.73 108.07 154.69 107.96Z" />
			<path id="Layer" class="shp1" d="M125.49 107.94L125.4 107.15C125.37 107.07 125.35 107 125.34 106.98C125.34 106.98 125.25 106.95 125.15 106.95C125.1 106.98 125.02 106.98 124.92 106.98C124.79 106.99 124.73 106.99 124.63 106.99C124.46 106.99 124.31 106.95 124.25 106.86C124.17 106.77 124.16 106.61 124.16 106.35L124.17 98.03C124.17 97.92 124.13 97.85 124.09 97.83C124.04 97.79 123.96 97.79 123.89 97.79L123.41 97.79C123.11 97.79 122.43 97.97 122.43 98.88L122.43 106.73C122.43 107.37 122.56 107.8 122.82 108.05C123.07 108.33 123.44 108.43 124 108.43C124.2 108.43 124.41 108.43 124.66 108.38C124.91 108.37 125.12 108.33 125.31 108.25C125.41 108.2 125.48 108.15 125.48 108.15C125.52 108.1 125.52 108.05 125.49 107.94Z" />
		</g>
	</g>
</svg>