<svg xmlns="http://www.w3.org/2000/svg" width="40" height="24" viewBox="0 0 40 24">
    <g fill="none" fill-rule="evenodd">
        <rect width="40" height="24" fill="#42BA3F" rx="2" transform="matrix(1 0 0 -1 0 24)"/>
        <path fill="#FFF" fill-rule="nonzero" d="M13.334 17.996h-.583c-.069 0-.143.004-.222.012a.66.66 0 0 0-.228.068c-.07.04-.13.09-.175.16a.547.547 0 0 0-.07.29c0 .179.06.301.175.37a.91.91 0 0 0 .47.107c.028 0 .07-.002.12-.007.05-.001.106-.004.16-.014.058-.008.117-.017.18-.03a.98.98 0 0 0 .173-.049v-.907zm.718 1.167c0 .096-.036.165-.116.204a2.284 2.284 0 0 1-.604.17 3.79 3.79 0 0 1-.637.043c-.266 0-.49-.026-.665-.082a1.111 1.111 0 0 1-.422-.221.775.775 0 0 1-.215-.329 1.267 1.267 0 0 1-.06-.396c0-.147.024-.283.072-.417a.847.847 0 0 1 .226-.353c.106-.098.241-.18.41-.243a1.81 1.81 0 0 1 .617-.092h.684v-.104a.993.993 0 0 0-.025-.219.408.408 0 0 0-.095-.172.433.433 0 0 0-.192-.11.97.97 0 0 0-.316-.042c-.138 0-.287.012-.45.038a2.254 2.254 0 0 0-.397.085.187.187 0 0 1-.095.007c-.02-.008-.035-.032-.046-.07l-.08-.352c-.019-.065 0-.11.052-.127a2.39 2.39 0 0 1 .559-.141c.204-.025.394-.039.572-.039.42 0 .732.093.927.284.198.19.296.465.296.828v1.85zm3.821-1.167h-.581c-.07 0-.147.004-.224.012a.55.55 0 0 0-.403.227.57.57 0 0 0-.067.29c0 .18.058.302.18.371.114.071.27.107.465.107.026 0 .069-.002.119-.007.05-.001.106-.004.161-.014.055-.008.116-.017.176-.03a.849.849 0 0 0 .174-.049v-.907zm.717 1.167c0 .096-.033.165-.114.204a2.25 2.25 0 0 1-.605.17 3.654 3.654 0 0 1-.631.043c-.273 0-.492-.026-.67-.082a1.141 1.141 0 0 1-.422-.221.8.8 0 0 1-.216-.329 1.3 1.3 0 0 1-.056-.396c0-.147.022-.283.07-.417a.85.85 0 0 1 .225-.353c.106-.098.242-.18.41-.243.17-.062.373-.092.616-.092h.683v-.104a.993.993 0 0 0-.024-.219.358.358 0 0 0-.092-.172.477.477 0 0 0-.194-.11.958.958 0 0 0-.315-.042c-.138 0-.288.012-.452.038a2.262 2.262 0 0 0-.397.085.187.187 0 0 1-.094.007c-.02-.008-.035-.032-.043-.07l-.086-.352c-.018-.065.001-.11.054-.127.17-.066.356-.114.56-.141.206-.025.397-.039.572-.039.422 0 .732.093.931.284.193.19.29.465.29.828v1.85zm4.976-2.365a.653.653 0 0 0-.293.066.666.666 0 0 0-.215.175.933.933 0 0 0-.15.255.86.86 0 0 0-.06.294h1.402c0-.111-.012-.212-.034-.309a.654.654 0 0 0-.108-.248.511.511 0 0 0-.202-.171.827.827 0 0 0-.34-.062zm-.01-.597c.465 0 .81.122 1.039.365.22.242.332.574.332 1a.95.95 0 0 1-.033.265.423.423 0 0 1-.108.165.3.3 0 0 1-.151.084.707.707 0 0 1-.196.027h-1.612c.002.162.024.294.07.404.046.11.103.197.18.265a.735.735 0 0 0 .269.145c.101.028.215.044.33.044a1.626 1.626 0 0 0 .71-.168c.066-.027.11-.017.138.039l.162.35c.027.068.012.114-.043.143-.153.095-.322.16-.506.199-.182.034-.359.052-.523.052-.49 0-.87-.133-1.124-.4-.262-.268-.393-.69-.393-1.27 0-.272.037-.514.114-.724a1.6 1.6 0 0 1 .299-.54c.13-.144.279-.258.46-.33.176-.076.376-.115.586-.115zm6.601 1.795h-.587a2.2 2.2 0 0 0-.218.012.653.653 0 0 0-.228.068.514.514 0 0 0-.175.16.57.57 0 0 0-.07.29c0 .179.058.301.176.37a.907.907 0 0 0 .47.107c.03 0 .069-.002.117-.007.054-.001.108-.004.162-.014a2.7 2.7 0 0 0 .18-.03c.062-.012.12-.029.173-.049v-.907zm.718 1.167c0 .096-.037.165-.116.204a2.28 2.28 0 0 1-.606.17 3.764 3.764 0 0 1-.634.043 2.3 2.3 0 0 1-.67-.082 1.162 1.162 0 0 1-.417-.221.786.786 0 0 1-.215-.329 1.267 1.267 0 0 1-.06-.396c0-.147.022-.283.07-.417a.869.869 0 0 1 .23-.353c.102-.098.239-.18.408-.243.17-.062.374-.092.617-.092h.681v-.104a.874.874 0 0 0-.023-.219.396.396 0 0 0-.095-.172.449.449 0 0 0-.191-.11.972.972 0 0 0-.315-.042c-.138 0-.288.012-.455.038-.159.022-.29.051-.391.085-.046.011-.08.013-.098.007-.02-.008-.036-.032-.044-.07l-.086-.352c-.017-.065.002-.11.056-.127.172-.066.358-.114.56-.141.201-.025.395-.039.57-.039.421 0 .732.093.932.284.193.19.292.465.292.828v1.85zm-19.418-3.94a.233.233 0 0 1 .023.107v.383c0 .054-.012.093-.028.108-.015.022-.048.034-.102.034H9.721c-.154 0-.264.033-.324.103-.066.069-.097.166-.097.298v.722h1.823c.056 0 .087.01.103.032.016.017.022.051.022.11v.351a.2.2 0 0 1-.022.105c-.016.025-.047.036-.103.036H9.3v1.423c0 .402-.277.47-.408.48H8.7a.183.183 0 0 1-.105-.026c-.027-.017-.038-.052-.038-.105v-3.082c0-.149.02-.285.05-.419a.873.873 0 0 1 .517-.602c.139-.061.312-.092.513-.092h1.712c.056 0 .092.01.107.034zm9.605 3.166a1.75 1.75 0 0 0 .057-.495c0-.365-.067-.634-.204-.81a.683.683 0 0 0-.574-.266c-.069 0-.155.007-.277.02a1.44 1.44 0 0 0-.368.08v1.973c.099.033.198.054.302.064.102.01.2.017.279.017.126 0 .24-.019.348-.06a.65.65 0 0 0 .266-.187c.07-.087.128-.2.171-.336zm.708-1.19c.055.203.083.423.083.66 0 .249-.028.477-.088.685-.056.21-.154.392-.276.547a1.283 1.283 0 0 1-.48.363c-.197.083-.43.126-.694.126-.208 0-.418-.014-.637-.05-.22-.031-.42-.088-.6-.173-.035-.014-.06-.033-.072-.056a.198.198 0 0 1-.018-.089V15.47c.006-.384.264-.455.398-.465h.194c.044 0 .074.005.088.02.015.011.028.042.028.091v1.197a2.765 2.765 0 0 1 .764-.11c.242-.001.45.038.631.124.173.08.316.195.432.343.109.149.193.324.247.53zm4.724 2.167c.008.04.008.069 0 .082-.007.014-.031.033-.072.052a1.043 1.043 0 0 1-.276.068 3.397 3.397 0 0 1-.276.012c-.227 0-.396-.051-.499-.16-.106-.107-.159-.294-.159-.559v-3.409c.015-.367.266-.438.401-.447h.19c.047 0 .082.005.1.018.016.013.03.04.03.085v3.58c0 .106.013.18.04.216.027.04.084.059.163.059.03 0 .07 0 .113-.004.042-.006.079-.01.106-.012.035-.004.056-.002.07.007.015.012.024.032.026.068l.043.344zm1.561 0c.006.04.006.069 0 .082a.181.181 0 0 1-.07.052 1.095 1.095 0 0 1-.28.068 3.277 3.277 0 0 1-.278.012c-.226 0-.391-.051-.5-.16-.105-.107-.155-.294-.155-.559v-3.385c.002-.388.266-.462.398-.471h.197c.046 0 .08.005.096.018.018.013.029.04.029.085v3.58c0 .106.014.18.04.216.028.04.084.059.164.059.03 0 .072 0 .112-.004.042-.006.078-.01.107-.012.03-.004.057-.002.07.007.015.012.024.032.028.068l.042.344zm-12.271 0c.005.04.005.069 0 .082a.198.198 0 0 1-.072.052 1.069 1.069 0 0 1-.28.068 3.332 3.332 0 0 1-.275.012c-.229 0-.394-.051-.5-.16-.103-.107-.157-.294-.157-.559V15.48c0-.392.263-.466.4-.475h.198c.044 0 .073.005.093.018.018.013.024.04.024.085v3.58c0 .106.013.18.044.216.027.04.085.059.164.059.034 0 .066 0 .113-.004.042-.006.08-.01.108-.012.031-.004.057-.002.07.007.015.012.022.032.028.068l.042.344zm-.858-7.823l.002-.005-.002.005zm16.483.934c.12.12.221.29.221.54a.795.795 0 0 1-1.222.663l-2.062-2.127s-.01-.006-.012-.01a4.297 4.297 0 0 1-.423-.478 1.612 1.612 0 0 1-.417-1.061c.003-.574.342-1.106 1.092-1.3.737-.183 1.257-.544 1.254-1.252-.002-.712-.645-1.245-1.39-1.246h-1.72V12.425c0 .056-.009.092-.033.106-.015.008-.033.018-.06.019l-1.29.19v-.003l-.017.002a.187.187 0 0 1-.107-.007c-.024-.01-.039-.045-.05-.098V4.792c0-.058.011-.093.033-.107a.216.216 0 0 1 .085-.022h3.1c1.484.002 2.969 1 2.971 2.801-.002 1.542-.844 2.345-2.1 2.61l-.184.041 1.41 1.428.92.934zm-16.731-2.04c.22.146.355.391.362.666a.911.911 0 0 1-.12.44c-.065.117-.128.193-.128.193-.507.533-1.602 1.43-3.277 1.43a4.494 4.494 0 0 1-3.437-1.623A4.618 4.618 0 0 1 7 8.587C7.023 6.008 8.887 4.024 11.376 4c2.359-.023 3.378 1.566 3.623 2.018 0 0 .068.108-.071.13l-1.377.205c-.051.007-.09.004-.109-.012-.008-.002-.02-.015-.02-.015-.638-.62-1.374-.715-1.907-.717-1.609 0-2.917 1.325-2.917 2.956 0 1.633 1.308 2.964 2.917 2.964a2.88 2.88 0 0 0 1.978-.788c.039-.04.14-.134.185-.189a.767.767 0 0 1 .562-.246c.153 0 .3.043.438.131zm8.52-6.082c.638 0 1.179.543 1.18 1.196v7.234h-.004c-.004.05-.008.082-.034.097a.176.176 0 0 1-.07.021l.002.001-1.299.19h-.011a.2.2 0 0 1-.092-.01c-.027-.013-.041-.045-.05-.097h-.005V6.9l-2.254 4.643-.39.809s-.014.029-.035.029c-.025 0-.043-.03-.043-.03l-.477-.808-2.24-3.796v5.266a.787.787 0 0 1-.778.777.785.785 0 0 1-.78-.777V6.164c0-.057.01-.093.031-.106a.157.157 0 0 1 .056-.022l2.053-.294s.014-.003.043 0c.028.003.056.029.083.075l.463.808 1.504 2.599s.02.046.048.046c.03 0 .044-.046.044-.046l1.76-3.8c.287-.608.652-1.069 1.295-1.069z"/>
    </g>
</svg>
