<svg xmlns="http://www.w3.org/2000/svg" width="35" height="24" viewBox="0 0 35 24">
    <g fill="none" fill-rule="evenodd">
        <rect width="35" height="24" fill="#FFF" rx="2"/>
        <path fill="#F79410" fill-rule="nonzero" d="M25.138 10.126v-.92h-.12l-.138.633-.139-.632h-.12v.92h.085v-.694l.13.598h.088l.13-.6v.695h.084zm-.761 0v-.762h.154v-.156h-.393v.156h.154v.762h.085z"/>
        <path fill="#FF5F00" d="M21.318 9.816H18.97V5.678h2.348z"/>
        <g fill-rule="nonzero">
            <path fill="#FF5F00" d="M13.36 5.48h8.14v13.014h-8.14z"/>
            <path fill="#EB001B" d="M14.198 11.989c-.002-2.54 1.189-4.939 3.23-6.506-3.467-2.667-8.445-2.278-11.436.892a8.148 8.148 0 0 0 0 11.23c2.99 3.17 7.969 3.558 11.435.892-2.04-1.569-3.232-3.969-3.229-6.508z"/>
            <path fill="#F79E1B" d="M31.107 11.989c0 3.168-1.848 6.059-4.76 7.443a8.604 8.604 0 0 1-8.92-.938c2.04-1.569 3.23-3.967 3.23-6.507 0-2.539-1.19-4.938-3.23-6.507a8.604 8.604 0 0 1 8.92-.937c2.912 1.384 4.76 4.275 4.76 7.443v.003z"/>
        </g>
    </g>
</svg>
