<svg xmlns="http://www.w3.org/2000/svg" width="24" height="24" viewBox="0 0 24 24">
    <g fill="none" fill-rule="evenodd">
        <path d="M0 0h24v24H0z"/>
        <path fill="#F9F9F9" d="M2.007 4.547s2.247-2.62 3.37-2.545c1.123.15 2.62 2.62 3.07 4.042.374 1.422-.525 2.395-.9 2.92-.299.449-.598.823-.598.823.898 2.695 4.567 6.363 7.263 7.261 0 0 .374-.225.898-.599.45-.374 1.423-1.272 2.92-.823 1.423.374 3.894 1.946 3.968 2.994.075 1.123-2.545 3.369-2.545 3.369-8.835.374-17.745-8.609-17.446-17.442zm9.285-.375c-.974 0-.974-1.497 0-1.497 2.695 0 5.24 1.048 7.113 2.92 1.871 1.871 2.92 4.491 2.92 7.111 0 .973-1.423.973-1.423 0 0-2.245-.898-4.416-2.546-6.063-1.572-1.572-3.743-2.47-6.064-2.47zm.074 3.07c-.973 0-.973-1.423 0-1.423 1.797 0 3.594.674 4.867 2.022a6.849 6.849 0 0 1 2.022 4.865c0 .899-1.498.973-1.498 0a5.372 5.372 0 0 0-1.572-3.817c-1.048-1.048-2.396-1.647-3.819-1.647z"/>
    </g>
</svg>
