<svg xmlns="http://www.w3.org/2000/svg" width="24" height="24" viewBox="0 0 24 24">
    <g fill="none" fill-rule="evenodd">
        <path d="M0 0h24v24H0z"/>
        <path fill="#F9F9F9" d="M20.895 2H3.105C2.495 2 2 2.495 2 3.105v17.79C2 21.505 2.495 22 3.105 22h9.58v-7.72H10.07V11.24h2.6V9.018c0-2.586 1.576-3.993 3.88-3.993.784.002 1.566.046 2.345.133v2.698h-1.593c-1.253 0-1.495.593-1.495 1.467v1.93h3l-.39 3.028h-2.61V22h5.088c.61 0 1.105-.495 1.105-1.105V3.105C22 2.495 21.505 2 20.895 2z"/>
    </g>
</svg>
