<svg xmlns="http://www.w3.org/2000/svg" width="24" height="24" viewBox="0 0 24 24">
    <path fill="#F9F9F9" fill-rule="evenodd" d="M8.283 20c7.547 0 11.676-6.157 11.676-11.488 0-.173 0-.347-.008-.52A8.287 8.287 0 0 0 22 5.898a8.424 8.424 0 0 1-2.36.637A4.075 4.075 0 0 0 21.447 4.3a8.245 8.245 0 0 1-2.61.977A4.128 4.128 0 0 0 15.847 4C13.58 4 11.74 5.811 11.74 8.04c0 .314.04.621.104.92a11.718 11.718 0 0 1-8.46-4.22 3.988 3.988 0 0 0-.552 2.032c0 1.401.729 2.637 1.825 3.362A4.203 4.203 0 0 1 2.8 9.63v.055c0 1.953 1.417 3.59 3.29 3.96a4.063 4.063 0 0 1-1.08.142c-.265 0-.521-.023-.77-.07.521 1.606 2.042 2.771 3.834 2.803a8.317 8.317 0 0 1-5.098 1.732c-.328 0-.656-.016-.976-.055A11.814 11.814 0 0 0 8.283 20z"/>
</svg>
