<svg xmlns="http://www.w3.org/2000/svg" width="24" height="24" viewBox="0 0 24 24">
    <g fill="none" fill-rule="evenodd">
        <path d="M0 0h24v24H0z"/>
        <path fill="#FFFFFE" d="M10 15V9l5.196 3L10 15zm11.582-7.814a2.505 2.505 0 0 0-1.768-1.768C18.254 5 12 5 12 5s-6.254 0-7.814.418c-.86.23-1.538.908-1.768 1.768C2 8.746 2 12 2 12s0 3.254.418 4.814c.23.86.908 1.538 1.768 1.768C5.746 19 12 19 12 19s6.254 0 7.814-.418a2.504 2.504 0 0 0 1.768-1.768C22 15.254 22 12 22 12s0-3.254-.418-4.814z"/>
    </g>
</svg>
