<svg xmlns="http://www.w3.org/2000/svg" width="24" height="24" viewBox="0 0 24 24">
    <g fill="none" fill-rule="evenodd">
        <path d="M0 0h24v24H0z"/>
        <path fill="#F9F9F9" d="M16.582 13.985c-.249-.124-1.472-.723-1.7-.806-.228-.082-.394-.123-.56.124-.166.248-.643.806-.788.971-.145.166-.29.186-.54.062-.248-.124-1.05-.385-2-1.229-.74-.656-1.24-1.467-1.384-1.715-.145-.248-.016-.382.109-.506.112-.11.249-.289.373-.433.124-.145.166-.248.249-.414.083-.165.041-.31-.02-.433-.063-.124-.56-1.343-.768-1.84-.202-.482-.407-.416-.56-.424a10.027 10.027 0 0 0-.477-.009.916.916 0 0 0-.663.31c-.228.248-.871.847-.871 2.066 0 1.219.891 2.396 1.016 2.562.124.165 1.754 2.666 4.25 3.739.594.255 1.058.407 1.419.521.596.189 1.138.162 1.567.098.478-.07 1.472-.599 1.68-1.177.207-.579.207-1.074.145-1.178-.062-.103-.228-.165-.477-.289m-4.54 6.17h-.004a8.295 8.295 0 0 1-4.212-1.149l-.302-.178-3.133.818.836-3.04-.197-.312a8.188 8.188 0 0 1-1.265-4.384c.002-4.541 3.715-8.236 8.28-8.236a8.24 8.24 0 0 1 5.852 2.416 8.168 8.168 0 0 1 2.422 5.827c-.002 4.542-3.715 8.237-8.277 8.237m7.044-15.248A9.918 9.918 0 0 0 12.042 2c-5.49 0-9.956 4.446-9.959 9.91 0 1.747.458 3.451 1.33 4.954L2 22l5.279-1.378a9.987 9.987 0 0 0 4.759 1.206h.004c5.488 0 9.956-4.446 9.958-9.91a9.827 9.827 0 0 0-2.914-7.012"/>
    </g>
</svg>
